<svg width="400" height="300" viewBox="0 0 448 360" fill="none" xmlns="http://www.w3.org/2000/svg">
<path d="M447.316 319.611H0.684082V319.834H447.316V319.611Z" fill="#EBEBEB" style="fill:#EBEBEB;fill:color(display-p3 0.9216 0.9216 0.9216);fill-opacity:1;"/>
<path d="M402.563 333.983H372.979V334.207H402.563V333.983Z" fill="#EBEBEB" style="fill:#EBEBEB;fill:color(display-p3 0.9216 0.9216 0.9216);fill-opacity:1;"/>
<path d="M296.551 336.413H288.788V336.636H296.551V336.413Z" fill="#EBEBEB" style="fill:#EBEBEB;fill:color(display-p3 0.9216 0.9216 0.9216);fill-opacity:1;"/>
<path d="M372.086 325.694H354.944V325.917H372.086V325.694Z" fill="#EBEBEB" style="fill:#EBEBEB;fill:color(display-p3 0.9216 0.9216 0.9216);fill-opacity:1;"/>
<path d="M86.125 327.194H47.5449V327.418H86.125V327.194Z" fill="#EBEBEB" style="fill:#EBEBEB;fill:color(display-p3 0.9216 0.9216 0.9216);fill-opacity:1;"/>
<path d="M99.7383 327.194H94.084V327.418H99.7383V327.194Z" fill="#EBEBEB" style="fill:#EBEBEB;fill:color(display-p3 0.9216 0.9216 0.9216);fill-opacity:1;"/>
<path d="M201.803 330.964H118.122V331.187H201.803V330.964Z" fill="#EBEBEB" style="fill:#EBEBEB;fill:color(display-p3 0.9216 0.9216 0.9216);fill-opacity:1;"/>
<path d="M212.388 279.771H39.9075C38.5563 279.769 37.2613 279.23 36.3067 278.274C35.3521 277.318 34.8159 276.022 34.8159 274.671V32.212C34.8277 30.8686 35.369 29.584 36.3224 28.6374C37.2757 27.6907 38.564 27.1584 39.9075 27.1561H212.388C213.741 27.1561 215.038 27.6935 215.994 28.65C216.951 29.6066 217.488 30.9039 217.488 32.2567V274.671C217.488 276.023 216.951 277.321 215.994 278.277C215.038 279.234 213.741 279.771 212.388 279.771ZM39.9075 27.3348C38.6156 27.3371 37.3773 27.852 36.4646 28.7664C35.5519 29.6808 35.0392 30.92 35.0392 32.212V274.671C35.0392 275.963 35.5519 277.202 36.4646 278.116C37.3773 279.031 38.6156 279.545 39.9075 279.548H212.388C213.681 279.545 214.92 279.031 215.834 278.117C216.748 277.202 217.263 275.963 217.265 274.671V32.212C217.263 30.9192 216.748 29.68 215.834 28.7659C214.92 27.8517 213.681 27.3371 212.388 27.3348H39.9075Z" fill="#EBEBEB" style="fill:#EBEBEB;fill:color(display-p3 0.9216 0.9216 0.9216);fill-opacity:1;"/>
<path d="M405.609 279.771H233.12C231.768 279.769 230.472 279.231 229.516 278.275C228.56 277.319 228.022 276.023 228.02 274.671V32.212C228.034 30.8677 228.577 29.5832 229.532 28.6368C230.486 27.6904 231.776 27.1584 233.12 27.1561H405.609C406.951 27.1608 408.237 27.6941 409.189 28.6405C410.14 29.5869 410.68 30.8701 410.692 32.212V274.671C410.692 276.02 410.157 277.315 409.204 278.271C408.252 279.227 406.959 279.766 405.609 279.771ZM233.12 27.3348C231.827 27.3371 230.588 27.8517 229.674 28.7659C228.76 29.68 228.245 30.9192 228.243 32.212V274.671C228.245 275.963 228.76 277.202 229.674 278.117C230.588 279.031 231.827 279.545 233.12 279.548H405.609C406.902 279.545 408.141 279.031 409.055 278.117C409.97 277.202 410.484 275.963 410.486 274.671V32.212C410.484 30.9192 409.97 29.68 409.055 28.7659C408.141 27.8517 406.902 27.3371 405.609 27.3348H233.12Z" fill="#EBEBEB" style="fill:#EBEBEB;fill:color(display-p3 0.9216 0.9216 0.9216);fill-opacity:1;"/>
<path d="M356.48 64.4767H242.982V319.611H356.48V64.4767Z" fill="#F0F0F0" style="fill:#F0F0F0;fill:color(display-p3 0.9412 0.9412 0.9412);fill-opacity:1;"/>
<path d="M356.48 64.4767H245.376V319.611H356.48V64.4767Z" fill="#F5F5F5" style="fill:#F5F5F5;fill:color(display-p3 0.9608 0.9608 0.9608);fill-opacity:1;"/>
<path d="M349.7 313.822V70.2651H252.138V313.822H349.7Z" fill="#F0F0F0" style="fill:#F0F0F0;fill:color(display-p3 0.9412 0.9412 0.9412);fill-opacity:1;"/>
<path d="M261.731 115.589C261.728 112.095 262.413 108.635 263.747 105.405C265.081 102.176 267.038 99.241 269.507 96.7682C271.976 94.2955 274.907 92.3332 278.134 90.9937C281.361 89.6541 284.821 88.9634 288.315 88.9611H313.505C317.002 88.9575 320.466 89.644 323.698 90.981C326.93 92.3181 329.866 94.2795 332.339 96.753C334.811 99.2264 336.772 102.163 338.108 105.396C339.444 108.628 340.129 112.092 340.124 115.589H261.731Z" fill="#FAFAFA" style="fill:#FAFAFA;fill:color(display-p3 0.9804 0.9804 0.9804);fill-opacity:1;"/>
<path d="M340.124 298.681V240.494H261.74V298.681H340.124Z" fill="#F5F5F5" style="fill:#F5F5F5;fill:color(display-p3 0.9608 0.9608 0.9608);fill-opacity:1;"/>
<path d="M261.732 232.991H296.311V131.972H261.732V232.991Z" fill="#F5F5F5" style="fill:#F5F5F5;fill:color(display-p3 0.9608 0.9608 0.9608);fill-opacity:1;"/>
<path d="M305.537 232.991H340.115V131.972H305.537V232.991Z" fill="#F5F5F5" style="fill:#F5F5F5;fill:color(display-p3 0.9608 0.9608 0.9608);fill-opacity:1;"/>
<path d="M327.618 182.021H341.777C342.359 182.021 342.918 181.79 343.33 181.378C343.742 180.966 343.974 180.407 343.974 179.824C343.972 179.242 343.739 178.684 343.328 178.273C342.916 177.861 342.359 177.629 341.777 177.626H327.618C327.036 177.626 326.477 177.858 326.065 178.27C325.652 178.682 325.421 179.241 325.421 179.824C325.421 180.407 325.652 180.966 326.065 181.378C326.477 181.79 327.036 182.021 327.618 182.021Z" fill="#E0E0E0" style="fill:#E0E0E0;fill:color(display-p3 0.8784 0.8784 0.8784);fill-opacity:1;"/>
<path d="M349.7 313.822V70.2651H347.94V313.822H349.7Z" fill="#F0F0F0" style="fill:#F0F0F0;fill:color(display-p3 0.9412 0.9412 0.9412);fill-opacity:1;"/>
<path d="M63.561 220.485H171.548V67.6388C171.548 55.4637 63.561 55.4637 63.561 67.6388V220.485Z" fill="#E0E0E0" style="fill:#E0E0E0;fill:color(display-p3 0.8784 0.8784 0.8784);fill-opacity:1;"/>
<path d="M66.0444 220.485H174.022V67.6388C174.022 55.4637 66.0355 55.4637 66.0444 67.6388V220.485Z" fill="#EBEBEB" style="fill:#EBEBEB;fill:color(display-p3 0.9216 0.9216 0.9216);fill-opacity:1;"/>
<path d="M168.663 212.821V70.6581C168.665 70.1814 168.519 69.7158 168.246 69.3255C167.972 68.9352 167.584 68.6392 167.135 68.4785C161.142 66.3257 144.804 63.8693 120.034 63.8693C95.2634 63.8693 78.9435 66.3257 72.9318 68.4785C72.4831 68.6392 72.0952 68.9352 71.8216 69.3255C71.5481 69.7158 71.4023 70.1814 71.4043 70.6581V212.821C71.4043 213.432 71.6471 214.018 72.0793 214.451C72.5115 214.883 73.0977 215.126 73.7089 215.126H166.358C166.969 215.126 167.556 214.883 167.988 214.451C168.42 214.018 168.663 213.432 168.663 212.821Z" fill="#FAFAFA" style="fill:#FAFAFA;fill:color(display-p3 0.9804 0.9804 0.9804);fill-opacity:1;"/>
<path d="M145.839 64.8965L162.677 215.126H138.085L121.113 63.8693C130.689 63.8961 138.961 64.298 145.839 64.8965Z" fill="white" style="fill:white;fill-opacity:1;"/>
<path d="M114.039 63.9229L131.011 215.126H117.406L100.506 64.4321C104.624 64.182 109.144 64.0033 114.039 63.9229Z" fill="white" style="fill:white;fill-opacity:1;"/>
<path d="M103.954 217.118L103.954 61.5646H99.2377L99.2377 217.118H103.954Z" fill="#EBEBEB" style="fill:#EBEBEB;fill:color(display-p3 0.9216 0.9216 0.9216);fill-opacity:1;"/>
<path d="M141.937 217.118V61.5646H137.22V217.118H141.937Z" fill="#EBEBEB" style="fill:#EBEBEB;fill:color(display-p3 0.9216 0.9216 0.9216);fill-opacity:1;"/>
<path d="M137.22 217.109V61.5557H136.371V217.109H137.22Z" fill="#E0E0E0" style="fill:#E0E0E0;fill:color(display-p3 0.8784 0.8784 0.8784);fill-opacity:1;"/>
<path d="M99.2383 217.109L99.2383 61.5557H98.3897L98.3897 217.109H99.2383Z" fill="#E0E0E0" style="fill:#E0E0E0;fill:color(display-p3 0.8784 0.8784 0.8784);fill-opacity:1;"/>
<path d="M69.6709 100.538L171.503 100.538V95.8213L69.6709 95.8213V100.538Z" fill="#EBEBEB" style="fill:#EBEBEB;fill:color(display-p3 0.9216 0.9216 0.9216);fill-opacity:1;"/>
<path d="M68.7772 224.264H178.943V219.056H68.7772V224.264Z" fill="#F5F5F5" style="fill:#F5F5F5;fill:color(display-p3 0.9608 0.9608 0.9608);fill-opacity:1;"/>
<path d="M68.7777 219.047H63.561V224.255H68.7777V219.047Z" fill="#E0E0E0" style="fill:#E0E0E0;fill:color(display-p3 0.8784 0.8784 0.8784);fill-opacity:1;"/>
<path d="M373.193 45.2715H400.125V37.6609H373.193V45.2715Z" fill="#F0F0F0" style="fill:#F0F0F0;fill:color(display-p3 0.9412 0.9412 0.9412);fill-opacity:1;"/>
<path d="M359.732 52.8821H386.664V45.2715H359.732V52.8821Z" fill="#E6E6E6" style="fill:#E6E6E6;fill:color(display-p3 0.9020 0.9020 0.9020);fill-opacity:1;"/>
<path d="M183.795 157.242H210.727V149.632H183.795V157.242Z" fill="#F5F5F5" style="fill:#F5F5F5;fill:color(display-p3 0.9608 0.9608 0.9608);fill-opacity:1;"/>
<path d="M143.839 253.045H170.771V245.434H143.839V253.045Z" fill="#F5F5F5" style="fill:#F5F5F5;fill:color(display-p3 0.9608 0.9608 0.9608);fill-opacity:1;"/>
<path d="M400.125 253.947H373.193V261.557H400.125V253.947Z" fill="#E6E6E6" style="fill:#E6E6E6;fill:color(display-p3 0.9020 0.9020 0.9020);fill-opacity:1;"/>
<path d="M170.324 21.4482L197.256 21.4482V13.8376L170.324 13.8376V21.4482Z" fill="#F0F0F0" style="fill:#F0F0F0;fill:color(display-p3 0.9412 0.9412 0.9412);fill-opacity:1;"/>
<path d="M71.3952 299.271H98.3271V291.66H71.3952V299.271Z" fill="#F5F5F5" style="fill:#F5F5F5;fill:color(display-p3 0.9608 0.9608 0.9608);fill-opacity:1;"/>
<path d="M50.0994 244.014H77.0312V236.403H50.0994V244.014Z" fill="#F5F5F5" style="fill:#F5F5F5;fill:color(display-p3 0.9608 0.9608 0.9608);fill-opacity:1;"/>
<path d="M84.8747 306.882H111.807V299.271H84.8747V306.882Z" fill="#F0F0F0" style="fill:#F0F0F0;fill:color(display-p3 0.9412 0.9412 0.9412);fill-opacity:1;"/>
<path d="M92.9763 38.7596H66.0444V46.3703H92.9763V38.7596Z" fill="#F0F0F0" style="fill:#F0F0F0;fill:color(display-p3 0.9412 0.9412 0.9412);fill-opacity:1;"/>
<path d="M224 359.95C319.653 359.95 397.195 355.423 397.195 349.839C397.195 344.254 319.653 339.727 224 339.727C128.347 339.727 50.8052 344.254 50.8052 349.839C50.8052 355.423 128.347 359.95 224 359.95Z" fill="#F5F5F5" style="fill:#F5F5F5;fill:color(display-p3 0.9608 0.9608 0.9608);fill-opacity:1;"/>
<path d="M118.72 91.7659C113.431 92.9361 107.286 100.35 113.36 107.916C119.434 115.482 109.26 112.177 107.679 125.415C106.098 138.653 118.166 136.429 114.378 145.112C110.591 153.794 136.88 167.55 153.28 157.126C169.68 146.702 171.217 124.254 166.089 116.322C160.962 108.39 153.477 107.889 156.871 99.3944C160.265 90.8995 156.263 82.0651 145.678 81.9847C137.693 81.9222 142.48 76.3393 131.493 76.3839C122.328 76.4286 114.226 82.8601 118.72 91.7659Z" fill="#263238" style="fill:#263238;fill:color(display-p3 0.1490 0.1961 0.2196);fill-opacity:1;"/>
<path d="M148.117 102.833C147.601 102.833 147.097 102.986 146.668 103.273C146.239 103.56 145.905 103.967 145.707 104.444C145.51 104.92 145.458 105.445 145.559 105.951C145.66 106.457 145.908 106.921 146.273 107.286C146.638 107.651 147.102 107.899 147.608 108C148.114 108.101 148.639 108.049 149.115 107.852C149.592 107.654 149.999 107.32 150.286 106.891C150.572 106.462 150.725 105.958 150.725 105.442C150.727 105.099 150.66 104.759 150.529 104.442C150.399 104.125 150.207 103.837 149.964 103.595C149.722 103.352 149.434 103.16 149.117 103.03C148.8 102.899 148.46 102.832 148.117 102.833ZM148.117 107.434C147.721 107.434 147.334 107.316 147.005 107.096C146.675 106.876 146.419 106.563 146.268 106.196C146.116 105.83 146.077 105.428 146.155 105.039C146.233 104.651 146.425 104.294 146.705 104.015C146.986 103.735 147.344 103.545 147.732 103.469C148.121 103.393 148.524 103.434 148.889 103.587C149.255 103.74 149.566 103.997 149.785 104.328C150.004 104.658 150.12 105.046 150.118 105.442C150.118 105.704 150.066 105.964 149.966 106.206C149.865 106.448 149.717 106.668 149.531 106.853C149.346 107.039 149.125 107.185 148.882 107.285C148.639 107.384 148.379 107.435 148.117 107.434Z" fill="white" style="fill:white;fill-opacity:1;"/>
<path d="M170.109 128.247C170.08 128.243 170.052 128.232 170.026 128.217C170.001 128.201 169.98 128.181 169.963 128.156C169.946 128.132 169.935 128.104 169.929 128.075C169.923 128.046 169.924 128.017 169.93 127.988C170.734 123.825 167.492 119.797 164.061 115.482C160.051 110.507 155.513 104.861 157.112 98.1349C158.479 92.4001 157.871 87.6122 155.397 84.6466C153.378 82.2258 150.225 81.0735 146.035 81.3236C142.194 81.5202 141.06 80.4304 139.854 79.3763C138.648 78.3223 137.049 76.8305 131.538 76.8662C131.48 76.8663 131.425 76.844 131.383 76.804C131.341 76.7641 131.317 76.7095 131.314 76.6519C131.314 76.5918 131.338 76.534 131.379 76.4907C131.421 76.4474 131.478 76.4219 131.538 76.4196H131.725C137.281 76.4196 138.809 77.8131 140.158 79.0458C141.337 80.1267 142.364 81.0646 146.018 80.877C150.35 80.6537 153.628 81.8239 155.745 84.3607C158.309 87.4425 158.943 92.4001 157.532 98.242C155.986 104.754 160.256 110.069 164.392 115.214C167.885 119.564 171.19 123.673 170.35 128.032C170.349 128.063 170.342 128.092 170.329 128.119C170.316 128.147 170.298 128.171 170.275 128.191C170.253 128.211 170.226 128.226 170.198 128.236C170.169 128.246 170.139 128.249 170.109 128.247Z" fill="#263238" style="fill:#263238;fill:color(display-p3 0.1490 0.1961 0.2196);fill-opacity:1;"/>
<path d="M191.11 111.177L189.913 113.517C189.689 113.95 189.571 114.431 189.571 114.919C189.571 115.407 189.689 115.888 189.913 116.322L192.03 120.431C192.448 121.241 193.053 121.94 193.796 122.468C194.539 122.997 195.398 123.339 196.3 123.468L197.426 123.629C199.695 119.886 199.382 114.169 199.382 114.169L199.471 112.534C199.501 112.198 199.463 111.86 199.36 111.539C199.258 111.217 199.092 110.92 198.874 110.663C198.655 110.406 198.388 110.195 198.087 110.043C197.786 109.89 197.458 109.799 197.122 109.774L193.879 109.551C193.31 109.526 192.746 109.667 192.255 109.955C191.764 110.243 191.366 110.668 191.11 111.177Z" fill="#FFC3BD" style="fill:#FFC3BD;fill:color(display-p3 1.0000 0.7647 0.7412);fill-opacity:1;"/>
<path d="M164.518 126.818C164.518 126.818 164.572 126.916 164.616 126.978L164.804 127.255L165.233 127.827C165.537 128.22 165.867 128.604 166.206 128.988C166.885 129.756 167.609 130.507 168.359 131.23C169.88 132.666 171.527 133.96 173.281 135.098C176.718 137.383 180.605 138.906 184.679 139.564L185.438 139.672L185.823 139.725C185.79 139.722 185.757 139.722 185.724 139.725C185.531 139.741 185.346 139.809 185.188 139.922C185.019 140.083 185.43 139.85 185.823 139.261C186.826 137.632 187.57 135.857 188.029 133.999C188.61 131.837 189.046 129.637 189.333 127.416C189.503 126.291 189.601 125.138 189.699 123.995C189.798 122.851 189.869 121.655 189.869 120.627L200.159 121.119C200.025 122.521 199.891 123.727 199.749 125.022C199.606 126.317 199.4 127.568 199.222 128.836C198.828 131.391 198.373 133.946 197.703 136.572C197.376 137.924 196.973 139.257 196.497 140.565C195.975 142.04 195.311 143.461 194.514 144.808C193.443 146.663 191.902 148.203 190.048 149.274C188.803 149.945 187.423 150.326 186.01 150.391C185.68 150.391 185.269 150.391 185.001 150.391H184.474L183.42 150.319C180.608 150.056 177.829 149.52 175.121 148.72C172.44 147.903 169.834 146.857 167.332 145.594C164.855 144.328 162.481 142.87 160.231 141.235C159.096 140.422 157.997 139.556 156.917 138.644C156.381 138.189 155.854 137.706 155.318 137.215L154.514 136.456L154.094 136.036C153.942 135.875 153.844 135.777 153.603 135.509L164.518 126.818Z" fill="#0F172A" style="fill:#0F172A;fill:color(display-p3 0.0588 0.0902 0.1647);fill-opacity:1;"/>
<path opacity="0.5" d="M164.518 126.818C164.518 126.818 164.572 126.916 164.616 126.978L164.804 127.255L165.233 127.827C165.537 128.22 165.867 128.604 166.206 128.988C166.885 129.756 167.609 130.507 168.359 131.23C169.88 132.666 171.527 133.96 173.281 135.098C176.718 137.383 180.605 138.906 184.679 139.564L185.438 139.672L185.823 139.725C185.79 139.722 185.757 139.722 185.724 139.725C185.531 139.741 185.346 139.809 185.188 139.922C185.019 140.083 185.43 139.85 185.823 139.261C186.826 137.632 187.57 135.857 188.029 133.999C188.61 131.837 189.046 129.637 189.333 127.416C189.503 126.291 189.601 125.138 189.699 123.995C189.798 122.851 189.869 121.655 189.869 120.627L200.159 121.119C200.025 122.521 199.891 123.727 199.749 125.022C199.606 126.317 199.4 127.568 199.222 128.836C198.828 131.391 198.373 133.946 197.703 136.572C197.376 137.924 196.973 139.257 196.497 140.565C195.975 142.04 195.311 143.461 194.514 144.808C193.443 146.663 191.902 148.203 190.048 149.274C188.803 149.945 187.423 150.326 186.01 150.391C185.68 150.391 185.269 150.391 185.001 150.391H184.474L183.42 150.319C180.608 150.056 177.829 149.52 175.121 148.72C172.44 147.903 169.834 146.857 167.332 145.594C164.855 144.328 162.481 142.87 160.231 141.235C159.096 140.422 157.997 139.556 156.917 138.644C156.381 138.189 155.854 137.706 155.318 137.215L154.514 136.456L154.094 136.036C153.942 135.875 153.844 135.777 153.603 135.509L164.518 126.818Z" fill="white" style="fill:white;fill-opacity:1;"/>
<path d="M143.079 342.71C141.775 339.798 142.677 327.525 142.856 325.533C140.596 324.345 132.824 325.801 132.824 325.801C132.824 325.801 134.995 338.691 133.717 342.71C136.692 344.372 143.079 342.71 143.079 342.71Z" fill="#FFC3BD" style="fill:#FFC3BD;fill:color(display-p3 1.0000 0.7647 0.7412);fill-opacity:1;"/>
<path d="M238.97 330.955C236.523 328.91 231.378 317.717 230.654 315.832C228.099 315.77 222.338 320.299 222.338 320.299C222.338 320.299 229.948 330.919 230.547 335.109C233.968 335.252 238.97 330.955 238.97 330.955Z" fill="#FFC3BD" style="fill:#FFC3BD;fill:color(display-p3 1.0000 0.7647 0.7412);fill-opacity:1;"/>
<path d="M151.029 349.83C144.499 349.83 143.383 349.732 139.711 349.606C136.567 349.49 135.817 349.883 133.289 349.83C131.181 349.785 131.261 347.766 131.904 345.435C132.137 344.613 132.458 343.648 132.798 342.487C132.924 342.047 133.19 341.66 133.556 341.384C133.922 341.108 134.367 340.959 134.825 340.96H141.971C142.295 340.965 142.614 341.042 142.905 341.185C143.195 341.329 143.45 341.536 143.651 341.79C145.384 343.943 149.126 345.515 152.396 345.953C155.933 346.426 153.637 349.83 151.029 349.83Z" fill="#0F172A" style="fill:#0F172A;fill:color(display-p3 0.0588 0.0902 0.1647);fill-opacity:1;"/>
<path d="M251.87 335.949C244.84 339.129 241.151 337.512 237.622 338.316C234.594 338.995 234.692 339.566 231.682 340.433C229.681 340.995 228.654 338.861 228.832 336.985C228.979 335.62 229.048 334.248 229.038 332.876C229.03 332.612 229.101 332.351 229.241 332.127C229.38 331.903 229.583 331.725 229.824 331.616L236.809 328.445C237.035 328.344 237.284 328.306 237.53 328.336C237.775 328.366 238.008 328.462 238.203 328.615C240.99 330.848 247.135 333.644 251.396 332.188C254.719 331.089 254.21 334.886 251.87 335.949Z" fill="#0F172A" style="fill:#0F172A;fill:color(display-p3 0.0588 0.0902 0.1647);fill-opacity:1;"/>
<path d="M174.334 176.635C174.334 176.635 190.833 214.518 199.882 242.433C210.967 267.694 233.174 320.691 233.174 320.691C233.611 322.04 226.59 324.515 225.072 324.265C225.072 324.265 195.755 289.106 183.821 249.168C152.78 210.222 143.624 178.957 143.624 178.957L174.334 176.635Z" fill="#263238" style="fill:#263238;fill:color(display-p3 0.1490 0.1961 0.2196);fill-opacity:1;"/>
<path opacity="0.2" d="M161.096 197.376C165.652 202.37 168.859 219.708 170.494 231.026C164.896 222.808 159.775 214.275 155.156 205.469C155.612 201.235 157.47 198.118 161.096 197.376Z" fill="black" style="fill:black;fill-opacity:1;"/>
<path d="M165.143 177.341C165.143 177.341 166.313 229.963 161.739 255.885C156.934 283.103 142.088 315.939 143.115 333.805C141.578 334.698 136.201 334.751 133.191 333.805C133.191 333.805 128.045 280.754 143.508 254.858C140.158 228.953 131.243 195.358 139.158 179.315L165.143 177.341Z" fill="#263238" style="fill:#263238;fill:color(display-p3 0.1490 0.1961 0.2196);fill-opacity:1;"/>
<path d="M143.865 330.089C143.89 331.316 144.004 332.54 144.205 333.751C144.225 333.852 144.225 333.955 144.204 334.056C144.183 334.156 144.141 334.251 144.081 334.335C144.022 334.419 143.946 334.49 143.858 334.543C143.77 334.596 143.672 334.631 143.571 334.644C139.935 335.225 134.638 334.385 133.012 334.09C132.857 334.061 132.714 333.985 132.604 333.871C132.493 333.757 132.421 333.613 132.396 333.456L131.851 330.026C131.833 329.915 131.839 329.802 131.869 329.694C131.9 329.585 131.953 329.485 132.027 329.4C132.1 329.315 132.191 329.247 132.293 329.201C132.396 329.155 132.507 329.131 132.619 329.133L143.115 329.329C143.314 329.334 143.504 329.416 143.644 329.557C143.784 329.699 143.863 329.89 143.865 330.089Z" fill="#263238" style="fill:#263238;fill:color(display-p3 0.1490 0.1961 0.2196);fill-opacity:1;"/>
<path opacity="0.1" d="M143.865 330.089C143.89 331.316 144.004 332.54 144.205 333.751C144.225 333.852 144.225 333.955 144.204 334.056C144.183 334.156 144.141 334.251 144.081 334.335C144.022 334.419 143.946 334.49 143.858 334.543C143.77 334.596 143.672 334.631 143.571 334.644C139.935 335.225 134.638 334.385 133.012 334.09C132.857 334.061 132.714 333.985 132.604 333.871C132.493 333.757 132.421 333.613 132.396 333.456L131.851 330.026C131.833 329.915 131.839 329.802 131.869 329.694C131.9 329.585 131.953 329.485 132.027 329.4C132.1 329.315 132.191 329.247 132.293 329.201C132.396 329.155 132.507 329.131 132.619 329.133L143.115 329.329C143.314 329.334 143.504 329.416 143.644 329.557C143.784 329.699 143.863 329.89 143.865 330.089Z" fill="white" style="fill:white;fill-opacity:1;"/>
<path d="M232.414 316.824C232.861 317.717 233.674 319.173 234.317 320.272C234.416 320.445 234.443 320.651 234.393 320.844C234.343 321.038 234.22 321.204 234.049 321.308C231.175 322.859 228.164 324.142 225.054 325.14C224.897 325.202 224.725 325.21 224.563 325.163C224.401 325.116 224.26 325.017 224.161 324.881L222.035 322.067C221.966 321.977 221.919 321.873 221.895 321.763C221.871 321.652 221.872 321.538 221.898 321.428C221.923 321.318 221.973 321.215 222.043 321.126C222.113 321.038 222.202 320.965 222.303 320.915L231.36 316.502C231.45 316.45 231.549 316.417 231.652 316.405C231.755 316.393 231.859 316.402 231.958 316.432C232.057 316.463 232.148 316.513 232.227 316.58C232.306 316.648 232.369 316.73 232.414 316.824Z" fill="#263238" style="fill:#263238;fill:color(display-p3 0.1490 0.1961 0.2196);fill-opacity:1;"/>
<path opacity="0.1" d="M232.414 316.824C232.861 317.717 233.674 319.173 234.317 320.272C234.416 320.445 234.443 320.651 234.393 320.844C234.343 321.038 234.22 321.204 234.049 321.308C231.175 322.859 228.164 324.142 225.054 325.14C224.897 325.202 224.725 325.21 224.563 325.163C224.401 325.116 224.26 325.017 224.161 324.881L222.035 322.067C221.966 321.977 221.919 321.873 221.895 321.763C221.871 321.652 221.872 321.538 221.898 321.428C221.923 321.318 221.973 321.215 222.043 321.126C222.113 321.038 222.202 320.965 222.303 320.915L231.36 316.502C231.45 316.45 231.549 316.417 231.652 316.405C231.755 316.393 231.859 316.402 231.958 316.432C232.057 316.463 232.148 316.513 232.227 316.58C232.306 316.648 232.369 316.73 232.414 316.824Z" fill="white" style="fill:white;fill-opacity:1;"/>
<path d="M167.313 132.043C168.206 135.402 169.6 139.091 171.297 147.229C172.86 154.062 173.977 166.077 174.334 176.653C169.743 180.744 154.477 180.047 139.157 179.333C139.113 169.373 135.021 160.181 123.9 139.788C123.276 138.732 122.896 137.55 122.787 136.329C122.679 135.108 122.844 133.877 123.273 132.728C123.701 131.579 124.38 130.54 125.262 129.687C126.143 128.835 127.204 128.19 128.367 127.8C129.698 127.354 131.118 126.907 132.592 126.496C137.706 124.941 142.924 123.747 148.206 122.923C149.939 122.691 151.779 122.512 153.476 122.36C156.548 122.119 159.607 122.953 162.132 124.72C164.656 126.486 166.487 129.075 167.313 132.043Z" fill="#0F172A" style="fill:#0F172A;fill:color(display-p3 0.0588 0.0902 0.1647);fill-opacity:1;"/>
<path opacity="0.5" d="M167.313 132.043C168.206 135.402 169.6 139.091 171.297 147.229C172.86 154.062 173.977 166.077 174.334 176.653C169.743 180.744 154.477 180.047 139.157 179.333C139.113 169.373 135.021 160.181 123.9 139.788C123.276 138.732 122.896 137.55 122.787 136.329C122.679 135.108 122.844 133.877 123.273 132.728C123.701 131.579 124.38 130.54 125.262 129.687C126.143 128.835 127.204 128.19 128.367 127.8C129.698 127.354 131.118 126.907 132.592 126.496C137.706 124.941 142.924 123.747 148.206 122.923C149.939 122.691 151.779 122.512 153.476 122.36C156.548 122.119 159.607 122.953 162.132 124.72C164.656 126.486 166.487 129.075 167.313 132.043Z" fill="white" style="fill:white;fill-opacity:1;"/>
<path d="M149.234 122.914L133.468 126.308C133.468 126.308 146.224 131.668 156.451 139.832C159.238 125.79 149.234 122.914 149.234 122.914Z" fill="white" style="fill:white;fill-opacity:1;"/>
<path d="M129.707 108.649C132.208 113.365 135.96 122.19 133.468 126.291C133.468 126.291 147.697 130.4 155.29 136.929C156.308 126.371 149.234 122.914 149.234 122.914C143.231 122.914 141.963 118.573 141.766 114.517L129.707 108.649Z" fill="#FFC3BD" style="fill:#FFC3BD;fill:color(display-p3 1.0000 0.7647 0.7412);fill-opacity:1;"/>
<path d="M143.08 127.639C139.829 127.572 136.593 127.192 133.415 126.505C133.386 126.499 133.359 126.487 133.334 126.47C133.31 126.453 133.29 126.431 133.274 126.406C133.258 126.381 133.247 126.354 133.242 126.325C133.237 126.295 133.238 126.266 133.245 126.237C133.26 126.18 133.296 126.131 133.345 126.099C133.395 126.068 133.455 126.056 133.513 126.067C133.602 126.067 142.026 127.952 146.912 126.835C148.475 126.478 149.395 125.942 149.592 125.129C149.644 124.74 149.608 124.345 149.486 123.972C149.363 123.599 149.158 123.259 148.886 122.977C148.864 122.956 148.847 122.931 148.835 122.903C148.824 122.875 148.818 122.846 148.818 122.816C148.818 122.786 148.824 122.756 148.835 122.728C148.847 122.701 148.864 122.676 148.886 122.655C148.928 122.614 148.984 122.591 149.042 122.591C149.101 122.591 149.157 122.614 149.199 122.655C149.528 122.993 149.772 123.403 149.914 123.853C150.055 124.303 150.088 124.78 150.011 125.245C149.726 126.139 148.698 126.862 146.965 127.255C145.688 127.522 144.385 127.651 143.08 127.639Z" fill="white" style="fill:white;fill-opacity:1;"/>
<path d="M149.43 127.764C149.245 127.894 149.017 127.948 148.793 127.917C148.57 127.885 148.366 127.77 148.224 127.595L147.732 126.952C147.603 126.766 147.549 126.539 147.58 126.315C147.612 126.091 147.727 125.888 147.902 125.746C148.087 125.616 148.315 125.562 148.539 125.593C148.762 125.625 148.966 125.74 149.108 125.915L149.599 126.567C149.726 126.752 149.779 126.977 149.748 127.199C149.716 127.421 149.603 127.623 149.43 127.764Z" fill="#0F172A" style="fill:#0F172A;fill:color(display-p3 0.0588 0.0902 0.1647);fill-opacity:1;"/>
<path opacity="0.2" d="M134.62 111.043L141.766 114.517C141.799 115.47 141.918 116.418 142.124 117.349C139.89 117.528 136.237 115.893 135.335 113.776C134.932 112.916 134.69 111.99 134.62 111.043Z" fill="black" style="fill:black;fill-opacity:1;"/>
<path d="M122.507 101.494C126.187 109.122 127.572 112.418 133.226 115.035C141.686 118.975 150.332 113.356 149.028 104.924C147.858 97.3309 142.052 86.1651 133.057 85.7096C131.125 85.5459 129.185 85.903 127.438 86.7436C125.692 87.5842 124.202 88.8776 123.125 90.4892C122.048 92.1008 121.423 93.9716 121.314 95.907C121.205 97.8423 121.617 99.7715 122.507 101.494Z" fill="#FFC3BD" style="fill:#FFC3BD;fill:color(display-p3 1.0000 0.7647 0.7412);fill-opacity:1;"/>
<path d="M125.741 90.4171C129.734 96.0893 129.529 105.397 124.848 106.657C117.702 105.549 116.147 103.7 116.147 103.7C116.147 103.7 118.434 86.2009 125.741 90.4171Z" fill="#263238" style="fill:#263238;fill:color(display-p3 0.1490 0.1961 0.2196);fill-opacity:1;"/>
<path d="M120.113 92.7485C130.672 94.0973 139.077 89.6846 140.658 87.2103C131.1 80.752 121.158 86.2456 120.113 92.7485Z" fill="#263238" style="fill:#263238;fill:color(display-p3 0.1490 0.1961 0.2196);fill-opacity:1;"/>
<path d="M142.159 97.0898C143.384 98.3788 144.768 99.5073 146.277 100.448C145.759 101.547 144.133 101.699 144.133 101.699L142.159 97.0898Z" fill="#ED847E" style="fill:#ED847E;fill:color(display-p3 0.9294 0.5176 0.4941);fill-opacity:1;"/>
<path d="M141.65 105.218C142.036 105.154 142.415 105.058 142.785 104.933C142.81 104.924 142.833 104.91 142.852 104.892C142.871 104.874 142.886 104.852 142.897 104.827C142.907 104.803 142.912 104.776 142.911 104.75C142.91 104.723 142.904 104.697 142.892 104.674C142.87 104.622 142.829 104.58 142.778 104.557C142.727 104.533 142.669 104.531 142.615 104.549C141.781 104.843 140.891 104.946 140.011 104.85C139.131 104.754 138.284 104.462 137.532 103.995C137.494 103.958 137.443 103.937 137.39 103.937C137.336 103.937 137.285 103.958 137.247 103.995C137.218 104.04 137.208 104.095 137.218 104.148C137.227 104.201 137.257 104.248 137.3 104.281C138.584 105.121 140.134 105.455 141.65 105.218Z" fill="#263238" style="fill:#263238;fill:color(display-p3 0.1490 0.1961 0.2196);fill-opacity:1;"/>
<path d="M122.981 109.336C123.676 109.751 124.45 110.015 125.253 110.112C126.056 110.209 126.87 110.136 127.644 109.899C129.537 109.238 128.984 106.934 127.197 105.433C125.598 104.111 122.677 102.869 121.391 104.325C120.105 105.781 121.069 108.273 122.981 109.336Z" fill="#FFC3BD" style="fill:#FFC3BD;fill:color(display-p3 1.0000 0.7647 0.7412);fill-opacity:1;"/>
<path d="M126.349 109.801C125.833 109.801 125.328 109.954 124.899 110.241C124.471 110.527 124.136 110.934 123.939 111.411C123.741 111.888 123.69 112.412 123.79 112.918C123.891 113.424 124.139 113.889 124.504 114.254C124.869 114.618 125.334 114.867 125.84 114.967C126.346 115.068 126.87 115.016 127.347 114.819C127.823 114.622 128.231 114.287 128.517 113.858C128.804 113.429 128.957 112.925 128.957 112.409C128.958 112.066 128.891 111.727 128.761 111.41C128.63 111.093 128.438 110.805 128.196 110.562C127.953 110.32 127.665 110.128 127.348 109.997C127.031 109.866 126.691 109.8 126.349 109.801ZM126.349 114.401C125.952 114.401 125.565 114.284 125.236 114.063C124.907 113.843 124.65 113.53 124.499 113.164C124.348 112.798 124.309 112.395 124.387 112.007C124.465 111.618 124.656 111.262 124.937 110.982C125.218 110.703 125.575 110.513 125.964 110.437C126.352 110.361 126.755 110.401 127.12 110.554C127.486 110.707 127.798 110.965 128.017 111.295C128.235 111.625 128.351 112.013 128.349 112.409C128.349 112.672 128.298 112.931 128.197 113.174C128.096 113.416 127.949 113.636 127.763 113.821C127.577 114.006 127.356 114.153 127.114 114.252C126.871 114.352 126.611 114.402 126.349 114.401Z" fill="white" style="fill:white;fill-opacity:1;"/>
<path d="M132.164 96.4912C132.211 96.4641 132.25 96.4265 132.279 96.3816C132.309 96.3367 132.328 96.2855 132.334 96.2322C132.395 95.7313 132.579 95.2534 132.871 94.8417C133.162 94.43 133.552 94.0974 134.004 93.874C134.053 93.8538 134.097 93.8238 134.134 93.7858C134.171 93.7478 134.199 93.7027 134.217 93.6533C134.236 93.6038 134.244 93.5511 134.241 93.4984C134.238 93.4457 134.225 93.3941 134.201 93.347C134.151 93.2476 134.065 93.171 133.96 93.1329C133.856 93.0947 133.74 93.0978 133.638 93.1415C133.06 93.4108 132.56 93.8227 132.185 94.3383C131.81 94.854 131.572 95.4565 131.494 96.0893C131.488 96.17 131.505 96.2508 131.542 96.3227C131.58 96.3945 131.636 96.4546 131.706 96.4963C131.775 96.5379 131.855 96.5595 131.936 96.5586C132.017 96.5577 132.096 96.5344 132.164 96.4912Z" fill="#263238" style="fill:#263238;fill:color(display-p3 0.1490 0.1961 0.2196);fill-opacity:1;"/>
<path d="M144.848 91.757C144.901 91.7549 144.952 91.741 144.998 91.7163C145.045 91.6915 145.085 91.6566 145.116 91.6141C145.179 91.5252 145.203 91.4151 145.185 91.3079C145.167 91.2008 145.106 91.1053 145.018 91.0424C144.503 90.6125 143.895 90.3081 143.243 90.1531C142.59 89.9981 141.91 89.9967 141.257 90.1491C141.207 90.1648 141.16 90.1909 141.12 90.2258C141.081 90.2608 141.049 90.3036 141.027 90.3517C141.005 90.3998 140.994 90.4519 140.993 90.5048C140.993 90.5576 141.004 90.6099 141.025 90.6583C141.065 90.7614 141.142 90.846 141.241 90.8955C141.34 90.945 141.454 90.956 141.561 90.9263C142.078 90.8079 142.615 90.81 143.13 90.9324C143.646 91.0548 144.127 91.2941 144.535 91.6319C144.574 91.6757 144.623 91.7098 144.677 91.7315C144.731 91.7532 144.79 91.7619 144.848 91.757Z" fill="#263238" style="fill:#263238;fill:color(display-p3 0.1490 0.1961 0.2196);fill-opacity:1;"/>
<path d="M144.723 94.7762C144.947 95.4372 144.786 96.0893 144.348 96.2411C143.91 96.393 143.374 95.9642 143.142 95.3032C142.91 94.6422 143.08 93.9812 143.517 93.8383C143.955 93.6953 144.5 94.1509 144.723 94.7762Z" fill="#263238" style="fill:#263238;fill:color(display-p3 0.1490 0.1961 0.2196);fill-opacity:1;"/>
<path d="M136.978 97.9652C137.21 98.6262 137.041 99.2783 136.603 99.4302C136.165 99.582 135.629 99.1532 135.397 98.5369C135.165 97.9205 135.335 97.2149 135.772 97.0719C136.21 96.929 136.746 97.2953 136.978 97.9652Z" fill="#263238" style="fill:#263238;fill:color(display-p3 0.1490 0.1961 0.2196);fill-opacity:1;"/>
<path d="M135.397 97.4114L136.13 95.8392C136.13 95.8392 136.55 97.3399 135.397 97.4114Z" fill="#263238" style="fill:#263238;fill:color(display-p3 0.1490 0.1961 0.2196);fill-opacity:1;"/>
<path d="M143.089 94.3206L143.821 92.7485C143.821 92.7485 144.241 94.2402 143.089 94.3206Z" fill="#263238" style="fill:#263238;fill:color(display-p3 0.1490 0.1961 0.2196);fill-opacity:1;"/>
<path opacity="0.5" d="M133.781 140.735L126.027 143.647C129.216 149.56 131.744 154.455 133.683 158.707C133.21 152.724 133.243 146.712 133.781 140.735Z" fill="#0F172A" style="fill:#0F172A;fill:color(display-p3 0.0588 0.0902 0.1647);fill-opacity:1;"/>
<path d="M182.311 349.83H192.503L192.503 202.968H182.311L182.311 349.83Z" fill="#0F172A" style="fill:#0F172A;fill:color(display-p3 0.0588 0.0902 0.1647);fill-opacity:1;"/>
<path opacity="0.2" d="M182.32 202.977H192.512V227.676L182.32 225.05V202.977Z" fill="black" style="fill:black;fill-opacity:1;"/>
<path d="M241.91 221.262H150.994V204.237C150.994 198.049 153.452 192.114 157.828 187.739C162.203 183.363 168.138 180.905 174.326 180.905H218.578C224.766 180.905 230.701 183.363 235.076 187.739C239.452 192.114 241.91 198.049 241.91 204.237V221.262Z" fill="#0F172A" style="fill:#0F172A;fill:color(display-p3 0.0588 0.0902 0.1647);fill-opacity:1;"/>
<path d="M157.702 193.357L156.192 191.204C155.912 190.805 155.54 190.479 155.108 190.252C154.676 190.025 154.197 189.905 153.709 189.9H149.082C148.172 189.892 147.273 190.102 146.46 190.512C145.647 190.922 144.944 191.521 144.41 192.258L143.74 193.151C146 196.903 151.199 199.279 151.199 199.279L152.61 200.128C152.894 200.31 153.211 200.433 153.543 200.491C153.875 200.549 154.215 200.54 154.543 200.466C154.872 200.391 155.182 200.251 155.456 200.055C155.73 199.859 155.962 199.611 156.139 199.324L157.845 196.564C158.133 196.072 158.274 195.508 158.248 194.939C158.223 194.37 158.033 193.82 157.702 193.357Z" fill="#FFC3BD" style="fill:#FFC3BD;fill:color(display-p3 1.0000 0.7647 0.7412);fill-opacity:1;"/>
<path d="M136.639 138.528C136.407 139.02 136.103 139.734 135.844 140.315L135.049 142.298C134.531 143.629 134.04 144.978 133.593 146.326C132.703 149.004 131.967 151.73 131.387 154.491C131.119 155.849 130.896 157.171 130.726 158.528C130.584 159.819 130.506 161.116 130.494 162.414C130.424 164.607 130.81 166.791 131.628 168.828L131.967 169.542C131.992 169.6 132.013 169.66 132.03 169.721C132.601 171.499 133.481 173.162 134.629 174.634C135.962 176.422 137.425 178.109 139.006 179.681C140.65 181.289 142.41 182.852 144.232 184.353C145.125 185.103 146.09 185.827 147.037 186.532C147.984 187.238 148.984 187.953 149.868 188.533L144.804 196.573C143.589 195.813 142.562 195.117 141.463 194.375C140.364 193.634 139.328 192.874 138.274 192.097C136.166 190.561 134.102 188.926 132.093 187.158C130.005 185.365 128.052 183.422 126.251 181.342C125.275 180.215 124.38 179.021 123.571 177.769C122.669 176.401 121.911 174.944 121.311 173.419L121.713 174.312C119.805 170.825 118.7 166.955 118.479 162.986C118.254 159.507 118.349 156.014 118.765 152.553C119.156 149.248 119.728 145.968 120.48 142.727C120.837 141.125 121.236 139.529 121.677 137.939C121.891 137.144 122.115 136.358 122.356 135.563C122.597 134.768 122.829 134.017 123.16 133.07L136.639 138.528Z" fill="#0F172A" style="fill:#0F172A;fill:color(display-p3 0.0588 0.0902 0.1647);fill-opacity:1;"/>
<path opacity="0.5" d="M136.639 138.528C136.407 139.02 136.103 139.734 135.844 140.315L135.049 142.298C134.531 143.629 134.04 144.978 133.593 146.326C132.703 149.004 131.967 151.73 131.387 154.491C131.119 155.849 130.896 157.171 130.726 158.528C130.584 159.819 130.506 161.116 130.494 162.414C130.424 164.607 130.81 166.791 131.628 168.828L131.967 169.542C131.992 169.6 132.013 169.66 132.03 169.721C132.601 171.499 133.481 173.162 134.629 174.634C135.962 176.422 137.425 178.109 139.006 179.681C140.65 181.289 142.41 182.852 144.232 184.353C145.125 185.103 146.09 185.827 147.037 186.532C147.984 187.238 148.984 187.953 149.868 188.533L144.804 196.573C143.589 195.813 142.562 195.117 141.463 194.375C140.364 193.634 139.328 192.874 138.274 192.097C136.166 190.561 134.102 188.926 132.093 187.158C130.005 185.365 128.052 183.422 126.251 181.342C125.275 180.215 124.38 179.021 123.571 177.769C122.669 176.401 121.911 174.944 121.311 173.419L121.713 174.312C119.805 170.825 118.7 166.955 118.479 162.986C118.254 159.507 118.349 156.014 118.765 152.553C119.156 149.248 119.728 145.968 120.48 142.727C120.837 141.125 121.236 139.529 121.677 137.939C121.891 137.144 122.115 136.358 122.356 135.563C122.597 134.768 122.829 134.017 123.16 133.07L136.639 138.528Z" fill="white" style="fill:white;fill-opacity:1;"/>
<path opacity="0.1" d="M150.993 216.215H195.245V204.969H150.993V216.215Z" fill="white" style="fill:white;fill-opacity:1;"/>
<path opacity="0.2" d="M195.245 221.262V204.237C195.245 198.049 197.703 192.114 202.079 187.738C206.455 183.363 212.389 180.905 218.577 180.905C224.765 180.905 230.7 183.363 235.075 187.738C239.451 192.114 241.909 198.049 241.909 204.237V221.262" fill="black" style="fill:black;fill-opacity:1;"/>
<path d="M195.245 224.255H259.096V221.262H195.245V224.255Z" fill="#0F172A" style="fill:#0F172A;fill:color(display-p3 0.0588 0.0902 0.1647);fill-opacity:1;"/>
<path opacity="0.2" d="M212.432 224.255H259.096V221.262H212.432V224.255Z" fill="black" style="fill:black;fill-opacity:1;"/>
<path d="M187.421 209.042H189.073V169.623H187.421V209.042Z" fill="#E0E0E0" style="fill:#E0E0E0;fill:color(display-p3 0.8784 0.8784 0.8784);fill-opacity:1;"/>
<path d="M178.006 177.278H189.565V171.615C189.565 171.416 189.486 171.225 189.345 171.084C189.204 170.943 189.013 170.864 188.814 170.864H178.006L179.9 174.071L178.006 177.278Z" fill="#0F172A" style="fill:#0F172A;fill:color(display-p3 0.0588 0.0902 0.1647);fill-opacity:1;"/>
<path d="M294.192 56.9286C294.092 56.927 293.995 56.8918 293.918 56.8286C293.84 56.7655 293.786 56.678 293.764 56.5802C293.749 56.5233 293.746 56.464 293.755 56.4059C293.764 56.3478 293.784 56.2921 293.815 56.2421C293.846 56.1921 293.887 56.1488 293.935 56.1148C293.982 56.0808 294.037 56.0568 294.094 56.0443C295.085 55.8179 296.059 55.5193 297.006 55.151C297.061 55.1293 297.119 55.1185 297.178 55.1194C297.236 55.1202 297.294 55.1326 297.348 55.1558C297.402 55.179 297.451 55.2126 297.492 55.2547C297.533 55.2968 297.565 55.3466 297.587 55.4011C297.609 55.4557 297.619 55.5139 297.618 55.5726C297.618 55.6313 297.605 55.6893 297.582 55.7432C297.559 55.7971 297.525 55.8459 297.483 55.8869C297.441 55.9278 297.391 55.96 297.337 55.9817C296.35 56.3764 295.335 56.6959 294.3 56.9375L294.192 56.9286Z" fill="#0F172A" style="fill:#0F172A;fill:color(display-p3 0.0588 0.0902 0.1647);fill-opacity:1;"/>
<path d="M260.624 211.24C260.509 211.238 260.4 211.193 260.317 211.113C260.234 211.034 260.184 210.926 260.177 210.811C260.175 210.753 260.184 210.694 260.205 210.639C260.225 210.584 260.256 210.533 260.296 210.49C260.335 210.447 260.383 210.412 260.437 210.387C260.49 210.363 260.548 210.349 260.606 210.347C262.67 210.239 264.778 210.052 266.859 209.775C266.976 209.762 267.093 209.795 267.186 209.866C267.28 209.938 267.342 210.043 267.359 210.159C267.368 210.217 267.365 210.277 267.35 210.334C267.336 210.391 267.309 210.444 267.274 210.491C267.238 210.538 267.193 210.577 267.142 210.606C267.09 210.634 267.034 210.653 266.975 210.659C264.867 210.945 262.732 211.133 260.642 211.231L260.624 211.24ZM273.13 209.587C273.011 209.6 272.893 209.566 272.8 209.491C272.707 209.417 272.647 209.308 272.634 209.19C272.621 209.071 272.656 208.953 272.73 208.86C272.805 208.767 272.913 208.707 273.032 208.694C275.131 208.239 277.176 207.703 279.106 207.095C279.163 207.071 279.224 207.06 279.286 207.061C279.348 207.063 279.409 207.077 279.465 207.103C279.521 207.129 279.571 207.167 279.612 207.213C279.653 207.26 279.684 207.314 279.702 207.373C279.721 207.432 279.727 207.495 279.721 207.556C279.714 207.618 279.694 207.677 279.664 207.731C279.633 207.785 279.591 207.831 279.541 207.868C279.491 207.904 279.434 207.93 279.374 207.944C277.417 208.56 275.354 209.105 273.219 209.57L273.13 209.587ZM285.144 205.728C285.059 205.729 284.976 205.705 284.905 205.659C284.833 205.613 284.777 205.547 284.742 205.469C284.717 205.416 284.702 205.358 284.699 205.299C284.696 205.24 284.704 205.181 284.724 205.125C284.744 205.07 284.775 205.019 284.815 204.975C284.855 204.931 284.903 204.896 284.957 204.871C286.471 204.194 287.931 203.403 289.325 202.504L290.388 201.789C290.486 201.725 290.606 201.701 290.722 201.725C290.837 201.748 290.938 201.816 291.004 201.914C291.038 201.962 291.061 202.016 291.074 202.073C291.086 202.13 291.087 202.189 291.076 202.247C291.065 202.304 291.043 202.359 291.011 202.408C290.978 202.457 290.937 202.498 290.888 202.531L289.816 203.245C288.392 204.171 286.899 204.986 285.35 205.684C285.293 205.71 285.233 205.725 285.171 205.728H285.144ZM295.658 198.77C295.594 198.769 295.531 198.756 295.472 198.729C295.414 198.703 295.361 198.665 295.318 198.618C295.242 198.527 295.203 198.41 295.212 198.292C295.22 198.173 295.274 198.063 295.363 197.984C296.946 196.618 298.413 195.125 299.749 193.518C299.827 193.428 299.937 193.372 300.055 193.362C300.174 193.352 300.291 193.388 300.383 193.464C300.429 193.501 300.466 193.547 300.493 193.599C300.52 193.65 300.537 193.707 300.542 193.765C300.547 193.824 300.54 193.882 300.522 193.938C300.504 193.994 300.475 194.045 300.437 194.089C299.072 195.722 297.578 197.242 295.971 198.636C295.895 198.715 295.793 198.762 295.685 198.77H295.658ZM303.599 189.033C303.527 189.034 303.456 189.015 303.394 188.98C303.288 188.926 303.209 188.833 303.172 188.721C303.135 188.609 303.144 188.487 303.197 188.381C303.489 187.822 303.757 187.25 304.001 186.666C304.553 185.333 305.001 183.959 305.341 182.557C305.355 182.499 305.38 182.443 305.416 182.394C305.451 182.346 305.496 182.304 305.547 182.273C305.599 182.241 305.656 182.22 305.716 182.211C305.775 182.201 305.836 182.204 305.895 182.218C305.953 182.232 306.009 182.257 306.057 182.293C306.106 182.328 306.148 182.373 306.179 182.424C306.211 182.476 306.232 182.533 306.241 182.593C306.251 182.652 306.248 182.713 306.234 182.772C305.886 184.22 305.423 185.639 304.85 187.015C304.599 187.613 304.323 188.203 304.019 188.801C303.981 188.872 303.924 188.932 303.855 188.973C303.786 189.014 303.706 189.035 303.626 189.033H303.599ZM306.699 176.867C306.639 176.864 306.581 176.849 306.527 176.822C306.474 176.796 306.426 176.759 306.387 176.714C306.348 176.669 306.318 176.617 306.3 176.561C306.281 176.504 306.274 176.444 306.279 176.385C306.359 175.17 306.404 173.884 306.404 172.463C306.404 171.677 306.404 170.9 306.404 170.114C306.401 170.055 306.411 169.995 306.432 169.94C306.453 169.884 306.484 169.833 306.525 169.79C306.566 169.747 306.615 169.712 306.669 169.688C306.723 169.664 306.782 169.651 306.842 169.65C306.9 169.647 306.959 169.657 307.015 169.678C307.07 169.699 307.12 169.73 307.163 169.771C307.205 169.812 307.239 169.861 307.262 169.916C307.285 169.97 307.297 170.028 307.297 170.087C307.297 170.882 307.297 171.668 307.297 172.463C307.297 173.91 307.252 175.215 307.172 176.447C307.165 176.561 307.115 176.668 307.032 176.746C306.949 176.824 306.839 176.867 306.725 176.867H306.699ZM306.529 164.227C306.415 164.228 306.305 164.184 306.222 164.106C306.139 164.028 306.089 163.921 306.082 163.808C306.002 162.021 305.921 160.038 305.921 158.091V157.457C305.917 157.397 305.926 157.338 305.947 157.282C305.968 157.227 306.001 157.176 306.044 157.135C306.086 157.093 306.137 157.061 306.193 157.041C306.249 157.021 306.309 157.014 306.368 157.019C306.487 157.019 306.6 157.066 306.684 157.15C306.768 157.233 306.815 157.347 306.815 157.465V158.091C306.815 160.02 306.895 161.959 306.976 163.763C306.978 163.822 306.969 163.88 306.948 163.935C306.928 163.99 306.897 164.041 306.857 164.084C306.818 164.127 306.77 164.162 306.716 164.187C306.663 164.211 306.605 164.225 306.547 164.227H306.529ZM344.716 158.725C343.903 158.725 343.108 158.725 342.349 158.671C342.29 158.669 342.232 158.655 342.179 158.631C342.126 158.606 342.078 158.571 342.038 158.528C341.998 158.485 341.967 158.434 341.947 158.379C341.927 158.324 341.918 158.266 341.92 158.207C341.922 158.148 341.936 158.091 341.961 158.037C341.985 157.984 342.02 157.936 342.063 157.896C342.106 157.856 342.157 157.825 342.212 157.805C342.267 157.785 342.326 157.776 342.384 157.778C343.135 157.778 343.921 157.832 344.716 157.832C346.026 157.838 347.335 157.773 348.637 157.635C348.756 157.622 348.875 157.657 348.968 157.731C349.061 157.806 349.12 157.914 349.133 158.033C349.146 158.151 349.112 158.27 349.037 158.363C348.962 158.456 348.854 158.515 348.736 158.528C347.409 158.665 346.076 158.73 344.743 158.725H344.716ZM336.06 158.269C333.97 158.109 331.844 157.921 329.754 157.707C329.695 157.701 329.638 157.684 329.586 157.656C329.534 157.628 329.488 157.591 329.45 157.545C329.413 157.499 329.385 157.447 329.368 157.39C329.351 157.333 329.346 157.274 329.352 157.215C329.357 157.157 329.375 157.099 329.402 157.047C329.43 156.995 329.468 156.949 329.514 156.912C329.559 156.875 329.612 156.847 329.668 156.83C329.725 156.813 329.784 156.807 329.843 156.813C331.924 157.028 334.041 157.224 336.096 157.385C336.214 157.385 336.328 157.432 336.412 157.516C336.495 157.6 336.543 157.713 336.543 157.832C336.543 157.95 336.495 158.064 336.412 158.148C336.328 158.231 336.214 158.278 336.096 158.278L336.06 158.269ZM354.819 156.992C354.733 156.991 354.649 156.966 354.577 156.921C354.504 156.875 354.446 156.81 354.408 156.733C354.359 156.625 354.356 156.503 354.398 156.392C354.44 156.282 354.523 156.192 354.631 156.143C356.504 155.35 358.09 154.004 359.178 152.285C359.206 152.229 359.244 152.18 359.292 152.141C359.34 152.101 359.395 152.072 359.454 152.055C359.514 152.038 359.576 152.034 359.637 152.042C359.699 152.05 359.757 152.071 359.81 152.104C359.863 152.136 359.908 152.179 359.944 152.23C359.979 152.28 360.003 152.338 360.015 152.398C360.027 152.459 360.026 152.522 360.013 152.582C360 152.642 359.974 152.699 359.937 152.749C358.761 154.622 357.041 156.09 355.006 156.956C354.947 156.981 354.883 156.993 354.819 156.992ZM323.51 156.992H323.456C321.375 156.724 319.258 156.42 317.203 156.099C317.145 156.09 317.089 156.07 317.039 156.04C316.989 156.009 316.945 155.969 316.91 155.922C316.875 155.875 316.85 155.821 316.836 155.764C316.822 155.707 316.819 155.648 316.828 155.59C316.848 155.473 316.912 155.369 317.007 155.299C317.102 155.229 317.22 155.199 317.337 155.214C319.41 155.536 321.509 155.84 323.59 156.108C323.709 156.115 323.819 156.169 323.898 156.257C323.977 156.346 324.017 156.463 324.01 156.581C324.003 156.7 323.949 156.81 323.86 156.889C323.771 156.968 323.655 157.008 323.537 157.001L323.51 156.992ZM311.004 155.054H310.924C308.86 154.678 306.77 154.268 304.716 153.839C304.597 153.815 304.493 153.745 304.426 153.645C304.359 153.544 304.335 153.421 304.358 153.303C304.382 153.184 304.452 153.08 304.552 153.013C304.653 152.946 304.776 152.922 304.894 152.946C306.949 153.374 309.03 153.785 311.085 154.16C311.143 154.17 311.198 154.191 311.248 154.223C311.298 154.254 311.342 154.295 311.376 154.343C311.41 154.391 311.434 154.446 311.447 154.503C311.46 154.561 311.461 154.62 311.451 154.678C311.429 154.779 311.373 154.868 311.294 154.933C311.215 154.998 311.116 155.034 311.013 155.036L311.004 155.054ZM298.632 152.463H298.525C296.489 151.981 294.416 151.463 292.389 150.927C292.33 150.912 292.275 150.886 292.226 150.85C292.178 150.814 292.137 150.769 292.105 150.717C292.074 150.665 292.054 150.608 292.045 150.548C292.036 150.488 292.039 150.427 292.054 150.368C292.068 150.31 292.094 150.255 292.13 150.206C292.166 150.157 292.211 150.116 292.263 150.085C292.315 150.054 292.373 150.034 292.432 150.025C292.492 150.016 292.553 150.019 292.612 150.034C294.64 150.569 296.694 151.088 298.731 151.561C298.847 151.591 298.946 151.664 299.01 151.765C299.073 151.867 299.095 151.989 299.07 152.106C299.046 152.202 298.991 152.287 298.914 152.349C298.836 152.41 298.74 152.444 298.641 152.445L298.632 152.463ZM306.833 151.624H306.761C306.645 151.604 306.541 151.54 306.471 151.445C306.401 151.35 306.37 151.231 306.386 151.114C306.699 148.99 307.229 146.904 307.967 144.888C308.007 144.777 308.09 144.686 308.197 144.636C308.305 144.586 308.427 144.58 308.539 144.62C308.65 144.661 308.741 144.743 308.791 144.851C308.841 144.958 308.847 145.081 308.807 145.192C308.095 147.147 307.586 149.171 307.288 151.23C307.271 151.336 307.217 151.432 307.135 151.501C307.053 151.57 306.949 151.607 306.842 151.606L306.833 151.624ZM286.404 149.238C286.362 149.247 286.32 149.247 286.279 149.238C284.269 148.658 282.223 148.033 280.222 147.389C280.166 147.372 280.114 147.344 280.068 147.306C280.023 147.268 279.986 147.221 279.96 147.169C279.933 147.116 279.917 147.059 279.913 147C279.909 146.941 279.917 146.882 279.936 146.827C279.973 146.714 280.053 146.621 280.159 146.567C280.264 146.514 280.387 146.504 280.499 146.541C282.491 147.175 284.519 147.8 286.529 148.381C286.642 148.414 286.738 148.491 286.795 148.595C286.852 148.699 286.866 148.821 286.832 148.935C286.801 149.02 286.743 149.094 286.668 149.145C286.593 149.196 286.504 149.223 286.413 149.221L286.404 149.238ZM360.821 146.943C360.718 146.941 360.618 146.903 360.538 146.837C360.459 146.77 360.404 146.678 360.384 146.577C359.901 144.607 358.791 142.848 357.222 141.565C357.18 141.525 357.147 141.476 357.124 141.422C357.102 141.369 357.09 141.311 357.09 141.253C357.09 141.194 357.102 141.137 357.124 141.083C357.147 141.029 357.18 140.981 357.222 140.94C357.263 140.898 357.312 140.865 357.367 140.842C357.421 140.82 357.48 140.808 357.539 140.808C357.598 140.808 357.656 140.82 357.71 140.842C357.765 140.865 357.814 140.898 357.856 140.94C359.573 142.349 360.781 144.282 361.295 146.443C361.307 146.5 361.307 146.559 361.296 146.617C361.285 146.674 361.262 146.729 361.23 146.778C361.198 146.827 361.156 146.869 361.107 146.902C361.059 146.935 361.004 146.958 360.947 146.97L360.821 146.943ZM274.371 145.38C274.321 145.389 274.27 145.389 274.22 145.38C272.183 144.656 270.191 143.906 268.279 143.155C268.171 143.11 268.084 143.024 268.037 142.916C267.991 142.807 267.988 142.685 268.029 142.575C268.051 142.52 268.083 142.47 268.124 142.428C268.165 142.386 268.214 142.353 268.268 142.329C268.322 142.306 268.38 142.294 268.438 142.293C268.497 142.292 268.555 142.303 268.61 142.325C270.504 143.075 272.496 143.816 274.514 144.54C274.625 144.579 274.716 144.659 274.768 144.765C274.82 144.87 274.828 144.991 274.791 145.103C274.755 145.181 274.697 145.247 274.624 145.293C274.551 145.339 274.467 145.363 274.38 145.362L274.371 145.38ZM262.616 140.708C262.557 140.721 262.496 140.721 262.437 140.708C260.472 139.815 258.543 138.921 256.712 137.983C256.655 137.96 256.604 137.925 256.561 137.88C256.519 137.836 256.486 137.784 256.464 137.726C256.443 137.668 256.434 137.607 256.437 137.546C256.441 137.484 256.457 137.424 256.485 137.37C256.512 137.315 256.551 137.266 256.598 137.227C256.646 137.188 256.701 137.159 256.76 137.142C256.819 137.125 256.881 137.12 256.941 137.128C257.002 137.136 257.061 137.157 257.114 137.188C258.9 138.082 260.847 138.975 262.804 139.868C262.922 139.893 263.026 139.964 263.092 140.065C263.158 140.167 263.181 140.29 263.156 140.409C263.132 140.527 263.061 140.631 262.959 140.697C262.858 140.763 262.735 140.786 262.616 140.761V140.708ZM311.317 139.931C311.222 139.93 311.128 139.903 311.049 139.85C310.954 139.779 310.891 139.673 310.875 139.556C310.858 139.439 310.888 139.32 310.959 139.225C312.127 137.622 313.563 136.232 315.202 135.116L315.667 134.821C315.717 134.79 315.772 134.769 315.83 134.76C315.888 134.75 315.948 134.752 316.005 134.765C316.062 134.778 316.116 134.803 316.164 134.837C316.212 134.871 316.252 134.914 316.283 134.964C316.314 135.014 316.335 135.069 316.345 135.127C316.355 135.185 316.353 135.245 316.34 135.302C316.326 135.359 316.302 135.413 316.268 135.461C316.234 135.509 316.19 135.549 316.14 135.58L315.703 135.857C314.147 136.916 312.785 138.233 311.674 139.752C311.631 139.803 311.578 139.843 311.518 139.871C311.457 139.899 311.392 139.913 311.326 139.913L311.317 139.931ZM352.291 138.144C352.216 138.143 352.143 138.125 352.076 138.091C351.326 137.689 350.594 137.313 349.897 136.965C348.762 136.411 347.592 135.893 346.413 135.429C346.354 135.411 346.3 135.381 346.253 135.341C346.206 135.301 346.168 135.252 346.141 135.197C346.115 135.142 346.099 135.081 346.097 135.02C346.094 134.959 346.104 134.897 346.126 134.84C346.149 134.783 346.182 134.731 346.226 134.687C346.269 134.643 346.321 134.609 346.378 134.586C346.435 134.564 346.496 134.553 346.557 134.555C346.619 134.557 346.679 134.572 346.735 134.598C347.941 135.062 349.138 135.598 350.308 136.17C351.004 136.518 351.755 136.894 352.514 137.304C352.617 137.363 352.693 137.459 352.726 137.572C352.76 137.685 352.748 137.807 352.693 137.912C352.653 137.98 352.595 138.035 352.526 138.073C352.457 138.111 352.378 138.129 352.3 138.126L352.291 138.144ZM251.352 134.973C251.273 134.975 251.195 134.953 251.129 134.911C249.262 133.83 247.448 132.704 245.769 131.552C245.682 131.482 245.625 131.382 245.608 131.272C245.591 131.162 245.615 131.05 245.677 130.957C245.738 130.865 245.832 130.798 245.94 130.771C246.048 130.744 246.162 130.758 246.26 130.81C247.958 131.945 249.753 133.07 251.62 134.142C251.704 134.192 251.769 134.268 251.806 134.358C251.843 134.448 251.849 134.548 251.823 134.642C251.798 134.737 251.743 134.82 251.666 134.88C251.589 134.939 251.494 134.972 251.397 134.973H251.352ZM340.544 133.571H340.437C338.406 133.089 336.343 132.749 334.265 132.552C334.148 132.541 334.04 132.484 333.965 132.394C333.889 132.303 333.853 132.187 333.863 132.07C333.876 131.952 333.935 131.844 334.027 131.769C334.119 131.694 334.236 131.658 334.354 131.668C336.46 131.868 338.549 132.214 340.607 132.704C340.725 132.717 340.834 132.777 340.908 132.87C340.983 132.963 341.017 133.081 341.004 133.2C340.991 133.318 340.932 133.427 340.839 133.501C340.746 133.576 340.627 133.61 340.509 133.597L340.544 133.571ZM321.741 133.285C321.64 133.284 321.542 133.249 321.463 133.186C321.383 133.123 321.327 133.035 321.303 132.936C321.277 132.822 321.296 132.701 321.358 132.6C321.42 132.5 321.519 132.428 321.634 132.4C323.203 132.03 324.797 131.776 326.404 131.641C326.922 131.641 327.449 131.561 327.967 131.534C328.026 131.528 328.086 131.534 328.143 131.552C328.2 131.57 328.252 131.6 328.296 131.64C328.341 131.679 328.377 131.727 328.402 131.782C328.426 131.836 328.44 131.894 328.441 131.954C328.446 132.071 328.404 132.185 328.326 132.272C328.247 132.359 328.138 132.411 328.021 132.418C327.503 132.418 326.994 132.49 326.484 132.534C324.923 132.664 323.374 132.909 321.848 133.267L321.741 133.285ZM240.874 127.925C240.774 127.927 240.677 127.896 240.597 127.836C238.9 126.505 237.274 125.111 235.765 123.709C235.723 123.668 235.689 123.618 235.667 123.564C235.644 123.509 235.632 123.451 235.632 123.392C235.632 123.333 235.644 123.275 235.667 123.22C235.689 123.166 235.723 123.116 235.765 123.075C235.85 122.992 235.963 122.946 236.082 122.946C236.2 122.946 236.314 122.992 236.399 123.075C237.891 124.468 239.498 125.844 241.178 127.157C241.27 127.231 241.329 127.338 241.342 127.455C241.356 127.572 241.322 127.69 241.249 127.782C241.201 127.829 241.143 127.864 241.08 127.884C241.016 127.904 240.949 127.909 240.883 127.898L240.874 127.925ZM231.656 119.305C231.592 119.305 231.528 119.291 231.47 119.265C231.412 119.239 231.359 119.201 231.316 119.153C229.913 117.558 228.603 115.881 227.395 114.133C227.328 114.036 227.302 113.916 227.322 113.799C227.342 113.682 227.406 113.578 227.502 113.508C227.601 113.444 227.721 113.421 227.837 113.442C227.954 113.464 228.057 113.529 228.127 113.624C229.333 115.338 230.639 116.978 232.04 118.537C232.121 118.621 232.167 118.733 232.167 118.85C232.167 118.967 232.121 119.079 232.04 119.162C231.99 119.209 231.931 119.244 231.865 119.264C231.8 119.284 231.732 119.289 231.664 119.278L231.656 119.305ZM224.509 108.917C224.427 108.916 224.346 108.892 224.277 108.848C224.207 108.804 224.152 108.741 224.116 108.666C223.137 106.778 222.292 104.823 221.588 102.816C221.551 102.703 221.559 102.58 221.611 102.474C221.663 102.367 221.754 102.284 221.865 102.244C221.977 102.207 222.098 102.215 222.204 102.267C222.309 102.319 222.39 102.41 222.428 102.521C223.119 104.492 223.949 106.411 224.911 108.264C224.964 108.37 224.973 108.492 224.937 108.604C224.9 108.716 224.82 108.809 224.715 108.863C224.65 108.889 224.579 108.899 224.509 108.89V108.917ZM220.427 96.9826C220.321 96.9837 220.218 96.9462 220.138 96.8772C220.057 96.8082 220.005 96.7123 219.99 96.6074C219.9 96.134 219.829 95.6605 219.757 95.1782C219.539 93.6035 219.429 92.0158 219.427 90.426V90.2384C219.427 90.12 219.474 90.0064 219.558 89.9226C219.641 89.8389 219.755 89.7918 219.873 89.7918C219.992 89.7918 220.105 89.8389 220.189 89.9226C220.273 90.0064 220.32 90.12 220.32 90.2384V90.4171C220.319 91.9651 220.426 93.5113 220.642 95.0442C220.713 95.5176 220.785 95.9821 220.865 96.4466C220.886 96.5627 220.86 96.6822 220.793 96.7793C220.726 96.8764 220.623 96.943 220.508 96.9647L220.427 96.9826ZM220.472 84.4054H220.391C220.276 84.3837 220.173 84.3171 220.106 84.22C220.039 84.123 220.013 84.0034 220.034 83.8873C220.423 81.789 220.987 79.7272 221.722 77.7238C221.766 77.6133 221.851 77.5239 221.959 77.474C222.067 77.4241 222.19 77.4176 222.303 77.4558C222.413 77.4979 222.501 77.5815 222.55 77.6885C222.598 77.7955 222.603 77.9173 222.562 78.0275C221.84 79.9834 221.287 81.9977 220.91 84.0481C220.89 84.1579 220.829 84.2561 220.739 84.3225C220.65 84.3889 220.538 84.4186 220.427 84.4054H220.472ZM224.831 72.6054C224.753 72.6014 224.677 72.58 224.608 72.5429C224.506 72.4815 224.432 72.3827 224.402 72.2675C224.372 72.1523 224.388 72.0299 224.447 71.9265C225.521 70.0811 226.762 68.3379 228.154 66.7188C228.235 66.6458 228.34 66.6049 228.449 66.6038C228.558 66.6028 228.663 66.6416 228.746 66.7129C228.828 66.7843 228.881 66.8833 228.896 66.9914C228.91 67.0994 228.885 67.209 228.824 67.2994C227.485 68.8851 226.29 70.5859 225.251 72.3821C225.207 72.4596 225.141 72.5222 225.062 72.562C224.982 72.6018 224.892 72.6169 224.804 72.6054H224.831ZM233.058 63.0922C232.966 63.0916 232.876 63.0625 232.801 63.0089C232.726 62.9552 232.669 62.8796 232.639 62.7924C232.608 62.7053 232.606 62.6109 232.631 62.5222C232.657 62.4335 232.709 62.3549 232.781 62.2971C234.469 60.9867 236.279 59.841 238.185 58.876C238.292 58.8227 238.415 58.8139 238.528 58.8516C238.641 58.8893 238.735 58.9703 238.788 59.0769C238.842 59.1835 238.85 59.307 238.813 59.42C238.775 59.5331 238.694 59.6266 238.587 59.6799C236.733 60.6196 234.971 61.7322 233.326 63.0028C233.242 63.0673 233.137 63.0991 233.031 63.0922H233.058ZM287.922 57.5271C285.795 57.4804 283.673 57.2924 281.571 56.9644C281.453 56.9478 281.346 56.8848 281.274 56.7893C281.202 56.6939 281.17 56.5737 281.187 56.4552C281.204 56.3368 281.267 56.2297 281.362 56.1577C281.458 56.0857 281.578 56.0545 281.696 56.0711C283.766 56.3965 285.855 56.5815 287.949 56.6249C288.067 56.6249 288.181 56.672 288.265 56.7557C288.349 56.8395 288.396 56.9531 288.396 57.0716C288.396 57.19 288.349 57.3036 288.265 57.3874C288.181 57.4711 288.067 57.5182 287.949 57.5182L287.922 57.5271ZM244.206 57.2949C244.147 57.3043 244.087 57.302 244.03 57.2882C243.972 57.2744 243.917 57.2494 243.869 57.2146C243.821 57.1798 243.78 57.1358 243.749 57.0852C243.718 57.0346 243.697 56.9784 243.688 56.9197C243.678 56.8611 243.681 56.8011 243.694 56.7433C243.708 56.6856 243.733 56.6311 243.768 56.583C243.803 56.5349 243.847 56.4941 243.897 56.463C243.948 56.4318 244.004 56.411 244.063 56.4016C246.084 55.7455 248.142 55.2086 250.226 54.7937C250.285 54.7821 250.344 54.7821 250.403 54.7939C250.461 54.8056 250.516 54.8287 250.565 54.862C250.614 54.8952 250.656 54.9379 250.688 54.9876C250.721 55.0372 250.743 55.0928 250.754 55.151C250.766 55.2081 250.768 55.2671 250.757 55.3246C250.746 55.3821 250.724 55.4368 250.691 55.4853C250.659 55.5339 250.616 55.5752 250.567 55.6068C250.518 55.6384 250.463 55.6596 250.405 55.6691C248.355 56.0793 246.33 56.6072 244.34 57.2502L244.206 57.2949ZM275.399 55.8925H275.318C273.398 55.5351 271.227 55.1332 269.065 54.8295C268.95 54.8118 268.846 54.7495 268.776 54.656C268.706 54.5624 268.675 54.4451 268.69 54.3292C268.697 54.2707 268.715 54.2141 268.744 54.1628C268.773 54.1116 268.812 54.0666 268.859 54.0308C268.905 53.9949 268.959 53.9689 269.016 53.9541C269.073 53.9394 269.132 53.9364 269.19 53.9451C271.334 54.2488 273.514 54.6598 275.443 55.0171C275.559 55.0388 275.662 55.1054 275.729 55.2025C275.796 55.2995 275.821 55.4191 275.801 55.5351C275.785 55.6346 275.738 55.7261 275.665 55.7956C275.592 55.8651 275.499 55.9086 275.399 55.9192V55.8925ZM256.569 54.7401C256.45 54.7472 256.334 54.707 256.245 54.6283C256.156 54.5495 256.102 54.4388 256.095 54.3203C256.088 54.2019 256.128 54.0854 256.207 53.9966C256.286 53.9079 256.397 53.854 256.515 53.8469C257.649 53.7218 258.864 53.6057 260.088 53.5074C260.874 53.4449 261.705 53.4092 262.554 53.4092H262.848C262.907 53.4103 262.965 53.423 263.019 53.4466C263.072 53.4701 263.121 53.504 263.162 53.5463C263.202 53.5886 263.234 53.6385 263.255 53.6931C263.277 53.7478 263.287 53.8061 263.286 53.8647C263.279 53.9802 263.23 54.0891 263.147 54.17C263.065 54.251 262.955 54.2982 262.839 54.3024H262.554C261.732 54.3024 260.928 54.3024 260.151 54.3918C258.918 54.49 257.721 54.6062 256.578 54.7401H256.569Z" fill="#0F172A" style="fill:#0F172A;fill:color(display-p3 0.0588 0.0902 0.1647);fill-opacity:1;"/>
<path d="M254.211 211.258C253.148 211.213 252.094 211.133 251.075 211.034C251.017 211.03 250.96 211.014 250.908 210.987C250.856 210.96 250.81 210.923 250.772 210.878C250.735 210.833 250.707 210.781 250.69 210.725C250.673 210.669 250.667 210.61 250.673 210.552C250.677 210.493 250.692 210.436 250.718 210.383C250.745 210.33 250.782 210.284 250.827 210.246C250.872 210.208 250.925 210.18 250.981 210.164C251.038 210.147 251.097 210.143 251.156 210.15C252.165 210.248 253.201 210.32 254.255 210.365C254.374 210.365 254.487 210.412 254.571 210.495C254.655 210.579 254.702 210.693 254.702 210.811C254.702 210.93 254.655 211.043 254.571 211.127C254.487 211.211 254.374 211.258 254.255 211.258H254.211Z" fill="#0F172A" style="fill:#0F172A;fill:color(display-p3 0.0588 0.0902 0.1647);fill-opacity:1;"/>
<g opacity="0.6">
<path d="M294.192 56.9286C294.092 56.927 293.995 56.8918 293.918 56.8286C293.84 56.7655 293.786 56.678 293.764 56.5802C293.749 56.5233 293.746 56.464 293.755 56.4059C293.764 56.3478 293.784 56.2921 293.815 56.2421C293.846 56.1921 293.887 56.1488 293.935 56.1148C293.982 56.0808 294.037 56.0568 294.094 56.0443C295.085 55.8179 296.059 55.5193 297.006 55.151C297.061 55.1293 297.119 55.1185 297.178 55.1194C297.236 55.1202 297.294 55.1326 297.348 55.1558C297.402 55.179 297.451 55.2126 297.492 55.2547C297.533 55.2968 297.565 55.3466 297.587 55.4011C297.609 55.4557 297.619 55.5139 297.618 55.5726C297.618 55.6313 297.605 55.6893 297.582 55.7432C297.559 55.7971 297.525 55.8459 297.483 55.8869C297.441 55.9278 297.391 55.96 297.337 55.9817C296.35 56.3764 295.335 56.6959 294.3 56.9375L294.192 56.9286Z" fill="white" style="fill:white;fill-opacity:1;"/>
<path d="M260.624 211.24C260.509 211.238 260.4 211.193 260.317 211.113C260.234 211.034 260.184 210.926 260.177 210.811C260.175 210.753 260.184 210.694 260.205 210.639C260.225 210.584 260.256 210.533 260.296 210.49C260.335 210.447 260.383 210.412 260.437 210.387C260.49 210.363 260.548 210.349 260.606 210.347C262.67 210.239 264.778 210.052 266.859 209.775C266.976 209.762 267.093 209.795 267.186 209.866C267.28 209.938 267.342 210.043 267.359 210.159C267.368 210.217 267.365 210.277 267.35 210.334C267.336 210.391 267.309 210.444 267.274 210.491C267.238 210.538 267.193 210.577 267.142 210.606C267.09 210.634 267.034 210.653 266.975 210.659C264.867 210.945 262.732 211.133 260.642 211.231L260.624 211.24ZM273.13 209.587C273.011 209.6 272.893 209.566 272.8 209.491C272.707 209.417 272.647 209.308 272.634 209.19C272.621 209.071 272.656 208.953 272.73 208.86C272.805 208.767 272.913 208.707 273.032 208.694C275.131 208.239 277.176 207.703 279.106 207.095C279.163 207.071 279.224 207.06 279.286 207.061C279.348 207.063 279.409 207.077 279.465 207.103C279.521 207.129 279.571 207.167 279.612 207.213C279.653 207.26 279.684 207.314 279.702 207.373C279.721 207.432 279.727 207.495 279.721 207.556C279.714 207.618 279.694 207.677 279.664 207.731C279.633 207.785 279.591 207.831 279.541 207.868C279.491 207.904 279.434 207.93 279.374 207.944C277.417 208.56 275.354 209.105 273.219 209.57L273.13 209.587ZM285.144 205.728C285.059 205.729 284.976 205.705 284.905 205.659C284.833 205.613 284.777 205.547 284.742 205.469C284.717 205.416 284.702 205.358 284.699 205.299C284.696 205.24 284.704 205.181 284.724 205.125C284.744 205.07 284.775 205.019 284.815 204.975C284.855 204.931 284.903 204.896 284.957 204.871C286.471 204.194 287.931 203.403 289.325 202.504L290.388 201.789C290.486 201.725 290.606 201.701 290.722 201.725C290.837 201.748 290.938 201.816 291.004 201.914C291.038 201.962 291.061 202.016 291.074 202.073C291.086 202.13 291.087 202.189 291.076 202.247C291.065 202.304 291.043 202.359 291.011 202.408C290.978 202.457 290.937 202.498 290.888 202.531L289.816 203.245C288.392 204.171 286.899 204.986 285.35 205.684C285.293 205.71 285.233 205.725 285.171 205.728H285.144ZM295.658 198.77C295.594 198.769 295.531 198.756 295.472 198.729C295.414 198.703 295.361 198.665 295.318 198.618C295.242 198.527 295.203 198.41 295.212 198.292C295.22 198.173 295.274 198.063 295.363 197.984C296.946 196.618 298.413 195.125 299.749 193.518C299.827 193.428 299.937 193.372 300.055 193.362C300.174 193.352 300.291 193.388 300.383 193.464C300.429 193.501 300.466 193.547 300.493 193.599C300.52 193.65 300.537 193.707 300.542 193.765C300.547 193.824 300.54 193.882 300.522 193.938C300.504 193.994 300.475 194.045 300.437 194.089C299.072 195.722 297.578 197.242 295.971 198.636C295.895 198.715 295.793 198.762 295.685 198.77H295.658ZM303.599 189.033C303.527 189.034 303.456 189.015 303.394 188.98C303.288 188.926 303.209 188.833 303.172 188.721C303.135 188.609 303.144 188.487 303.197 188.381C303.489 187.822 303.757 187.25 304.001 186.666C304.553 185.333 305.001 183.959 305.341 182.557C305.355 182.499 305.38 182.443 305.416 182.394C305.451 182.346 305.496 182.304 305.547 182.273C305.599 182.241 305.656 182.22 305.716 182.211C305.775 182.201 305.836 182.204 305.895 182.218C305.953 182.232 306.009 182.257 306.057 182.293C306.106 182.328 306.148 182.373 306.179 182.424C306.211 182.476 306.232 182.533 306.241 182.593C306.251 182.652 306.248 182.713 306.234 182.772C305.886 184.22 305.423 185.639 304.85 187.015C304.599 187.613 304.323 188.203 304.019 188.801C303.981 188.872 303.924 188.932 303.855 188.973C303.786 189.014 303.706 189.035 303.626 189.033H303.599ZM306.699 176.867C306.639 176.864 306.581 176.849 306.527 176.822C306.474 176.796 306.426 176.759 306.387 176.714C306.348 176.669 306.318 176.617 306.3 176.561C306.281 176.504 306.274 176.444 306.279 176.385C306.359 175.17 306.404 173.884 306.404 172.463C306.404 171.677 306.404 170.9 306.404 170.114C306.401 170.055 306.411 169.995 306.432 169.94C306.453 169.884 306.484 169.833 306.525 169.79C306.566 169.747 306.615 169.712 306.669 169.688C306.723 169.664 306.782 169.651 306.842 169.65C306.9 169.647 306.959 169.657 307.015 169.678C307.07 169.699 307.12 169.73 307.163 169.771C307.205 169.812 307.239 169.861 307.262 169.916C307.285 169.97 307.297 170.028 307.297 170.087C307.297 170.882 307.297 171.668 307.297 172.463C307.297 173.91 307.252 175.215 307.172 176.447C307.165 176.561 307.115 176.668 307.032 176.746C306.949 176.824 306.839 176.867 306.725 176.867H306.699ZM306.529 164.227C306.415 164.228 306.305 164.184 306.222 164.106C306.139 164.028 306.089 163.921 306.082 163.808C306.002 162.021 305.921 160.038 305.921 158.091V157.457C305.917 157.397 305.926 157.338 305.947 157.282C305.968 157.227 306.001 157.176 306.044 157.135C306.086 157.093 306.137 157.061 306.193 157.041C306.249 157.021 306.309 157.014 306.368 157.019C306.487 157.019 306.6 157.066 306.684 157.15C306.768 157.233 306.815 157.347 306.815 157.465V158.091C306.815 160.02 306.895 161.959 306.976 163.763C306.978 163.822 306.969 163.88 306.948 163.935C306.928 163.99 306.897 164.041 306.857 164.084C306.818 164.127 306.77 164.162 306.716 164.187C306.663 164.211 306.605 164.225 306.547 164.227H306.529ZM344.716 158.725C343.903 158.725 343.108 158.725 342.349 158.671C342.29 158.669 342.232 158.655 342.179 158.631C342.126 158.606 342.078 158.571 342.038 158.528C341.998 158.485 341.967 158.434 341.947 158.379C341.927 158.324 341.918 158.266 341.92 158.207C341.922 158.148 341.936 158.091 341.961 158.037C341.985 157.984 342.02 157.936 342.063 157.896C342.106 157.856 342.157 157.825 342.212 157.805C342.267 157.785 342.326 157.776 342.384 157.778C343.135 157.778 343.921 157.832 344.716 157.832C346.026 157.838 347.335 157.773 348.637 157.635C348.756 157.622 348.875 157.657 348.968 157.731C349.061 157.806 349.12 157.914 349.133 158.033C349.146 158.151 349.112 158.27 349.037 158.363C348.962 158.456 348.854 158.515 348.736 158.528C347.409 158.665 346.076 158.73 344.743 158.725H344.716ZM336.06 158.269C333.97 158.109 331.844 157.921 329.754 157.707C329.695 157.701 329.638 157.684 329.586 157.656C329.534 157.628 329.488 157.591 329.45 157.545C329.413 157.499 329.385 157.447 329.368 157.39C329.351 157.333 329.346 157.274 329.352 157.215C329.357 157.157 329.375 157.099 329.402 157.047C329.43 156.995 329.468 156.949 329.514 156.912C329.559 156.875 329.612 156.847 329.668 156.83C329.725 156.813 329.784 156.807 329.843 156.813C331.924 157.028 334.041 157.224 336.096 157.385C336.214 157.385 336.328 157.432 336.412 157.516C336.495 157.6 336.543 157.713 336.543 157.832C336.543 157.95 336.495 158.064 336.412 158.148C336.328 158.231 336.214 158.278 336.096 158.278L336.06 158.269ZM354.819 156.992C354.733 156.991 354.649 156.966 354.577 156.921C354.504 156.875 354.446 156.81 354.408 156.733C354.359 156.625 354.356 156.503 354.398 156.392C354.44 156.282 354.523 156.192 354.631 156.143C356.504 155.35 358.09 154.004 359.178 152.285C359.206 152.229 359.244 152.18 359.292 152.141C359.34 152.101 359.395 152.072 359.454 152.055C359.514 152.038 359.576 152.034 359.637 152.042C359.699 152.05 359.757 152.071 359.81 152.104C359.863 152.136 359.908 152.179 359.944 152.23C359.979 152.28 360.003 152.338 360.015 152.398C360.027 152.459 360.026 152.522 360.013 152.582C360 152.642 359.974 152.699 359.937 152.749C358.761 154.622 357.041 156.09 355.006 156.956C354.947 156.981 354.883 156.993 354.819 156.992ZM323.51 156.992H323.456C321.375 156.724 319.258 156.42 317.203 156.099C317.145 156.09 317.089 156.07 317.039 156.04C316.989 156.009 316.945 155.969 316.91 155.922C316.875 155.875 316.85 155.821 316.836 155.764C316.822 155.707 316.819 155.648 316.828 155.59C316.848 155.473 316.912 155.369 317.007 155.299C317.102 155.229 317.22 155.199 317.337 155.214C319.41 155.536 321.509 155.84 323.59 156.108C323.709 156.115 323.819 156.169 323.898 156.257C323.977 156.346 324.017 156.463 324.01 156.581C324.003 156.7 323.949 156.81 323.86 156.889C323.771 156.968 323.655 157.008 323.537 157.001L323.51 156.992ZM311.004 155.054H310.924C308.86 154.678 306.77 154.268 304.716 153.839C304.597 153.815 304.493 153.745 304.426 153.645C304.359 153.544 304.335 153.421 304.358 153.303C304.382 153.184 304.452 153.08 304.552 153.013C304.653 152.946 304.776 152.922 304.894 152.946C306.949 153.374 309.03 153.785 311.085 154.16C311.143 154.17 311.198 154.191 311.248 154.223C311.298 154.254 311.342 154.295 311.376 154.343C311.41 154.391 311.434 154.446 311.447 154.503C311.46 154.561 311.461 154.62 311.451 154.678C311.429 154.779 311.373 154.868 311.294 154.933C311.215 154.998 311.116 155.034 311.013 155.036L311.004 155.054ZM298.632 152.463H298.525C296.489 151.981 294.416 151.463 292.389 150.927C292.33 150.912 292.275 150.886 292.226 150.85C292.178 150.814 292.137 150.769 292.105 150.717C292.074 150.665 292.054 150.608 292.045 150.548C292.036 150.488 292.039 150.427 292.054 150.368C292.068 150.31 292.094 150.255 292.13 150.206C292.166 150.157 292.211 150.116 292.263 150.085C292.315 150.054 292.373 150.034 292.432 150.025C292.492 150.016 292.553 150.019 292.612 150.034C294.64 150.569 296.694 151.088 298.731 151.561C298.847 151.591 298.946 151.664 299.01 151.765C299.073 151.867 299.095 151.989 299.07 152.106C299.046 152.202 298.991 152.287 298.914 152.349C298.836 152.41 298.74 152.444 298.641 152.445L298.632 152.463ZM306.833 151.624H306.761C306.645 151.604 306.541 151.54 306.471 151.445C306.401 151.35 306.37 151.231 306.386 151.114C306.699 148.99 307.229 146.904 307.967 144.888C308.007 144.777 308.09 144.686 308.197 144.636C308.305 144.586 308.427 144.58 308.539 144.62C308.65 144.661 308.741 144.743 308.791 144.851C308.841 144.958 308.847 145.081 308.807 145.192C308.095 147.147 307.586 149.171 307.288 151.23C307.271 151.336 307.217 151.432 307.135 151.501C307.053 151.57 306.949 151.607 306.842 151.606L306.833 151.624ZM286.404 149.238C286.362 149.247 286.32 149.247 286.279 149.238C284.269 148.658 282.223 148.033 280.222 147.389C280.166 147.372 280.114 147.344 280.068 147.306C280.023 147.268 279.986 147.221 279.96 147.169C279.933 147.116 279.917 147.059 279.913 147C279.909 146.941 279.917 146.882 279.936 146.827C279.973 146.714 280.053 146.621 280.159 146.567C280.264 146.514 280.387 146.504 280.499 146.541C282.491 147.175 284.519 147.8 286.529 148.381C286.642 148.414 286.738 148.491 286.795 148.595C286.852 148.699 286.866 148.821 286.832 148.935C286.801 149.02 286.743 149.094 286.668 149.145C286.593 149.196 286.504 149.223 286.413 149.221L286.404 149.238ZM360.821 146.943C360.718 146.941 360.618 146.903 360.538 146.837C360.459 146.77 360.404 146.678 360.384 146.577C359.901 144.607 358.791 142.848 357.222 141.565C357.18 141.525 357.147 141.476 357.124 141.422C357.102 141.369 357.09 141.311 357.09 141.253C357.09 141.194 357.102 141.137 357.124 141.083C357.147 141.029 357.18 140.981 357.222 140.94C357.263 140.898 357.312 140.865 357.367 140.842C357.421 140.82 357.48 140.808 357.539 140.808C357.598 140.808 357.656 140.82 357.71 140.842C357.765 140.865 357.814 140.898 357.856 140.94C359.573 142.349 360.781 144.282 361.295 146.443C361.307 146.5 361.307 146.559 361.296 146.617C361.285 146.674 361.262 146.729 361.23 146.778C361.198 146.827 361.156 146.869 361.107 146.902C361.059 146.935 361.004 146.958 360.947 146.97L360.821 146.943ZM274.371 145.38C274.321 145.389 274.27 145.389 274.22 145.38C272.183 144.656 270.191 143.906 268.279 143.155C268.171 143.11 268.084 143.024 268.037 142.916C267.991 142.807 267.988 142.685 268.029 142.575C268.051 142.52 268.083 142.47 268.124 142.428C268.165 142.386 268.214 142.353 268.268 142.329C268.322 142.306 268.38 142.294 268.438 142.293C268.497 142.292 268.555 142.303 268.61 142.325C270.504 143.075 272.496 143.816 274.514 144.54C274.625 144.579 274.716 144.659 274.768 144.765C274.82 144.87 274.828 144.991 274.791 145.103C274.755 145.181 274.697 145.247 274.624 145.293C274.551 145.339 274.467 145.363 274.38 145.362L274.371 145.38ZM262.616 140.708C262.557 140.721 262.496 140.721 262.437 140.708C260.472 139.815 258.543 138.921 256.712 137.983C256.655 137.96 256.604 137.925 256.561 137.88C256.519 137.836 256.486 137.784 256.464 137.726C256.443 137.668 256.434 137.607 256.437 137.546C256.441 137.484 256.457 137.424 256.485 137.37C256.512 137.315 256.551 137.266 256.598 137.227C256.646 137.188 256.701 137.159 256.76 137.142C256.819 137.125 256.881 137.12 256.941 137.128C257.002 137.136 257.061 137.157 257.114 137.188C258.9 138.082 260.847 138.975 262.804 139.868C262.922 139.893 263.026 139.964 263.092 140.065C263.158 140.167 263.181 140.29 263.156 140.409C263.132 140.527 263.061 140.631 262.959 140.697C262.858 140.763 262.735 140.786 262.616 140.761V140.708ZM311.317 139.931C311.222 139.93 311.128 139.903 311.049 139.85C310.954 139.779 310.891 139.673 310.875 139.556C310.858 139.439 310.888 139.32 310.959 139.225C312.127 137.622 313.563 136.232 315.202 135.116L315.667 134.821C315.717 134.79 315.772 134.769 315.83 134.76C315.888 134.75 315.948 134.752 316.005 134.765C316.062 134.778 316.116 134.803 316.164 134.837C316.212 134.871 316.252 134.914 316.283 134.964C316.314 135.014 316.335 135.069 316.345 135.127C316.355 135.185 316.353 135.245 316.34 135.302C316.326 135.359 316.302 135.413 316.268 135.461C316.234 135.509 316.19 135.549 316.14 135.58L315.703 135.857C314.147 136.916 312.785 138.233 311.674 139.752C311.631 139.803 311.578 139.843 311.518 139.871C311.457 139.899 311.392 139.913 311.326 139.913L311.317 139.931ZM352.291 138.144C352.216 138.143 352.143 138.125 352.076 138.091C351.326 137.689 350.594 137.313 349.897 136.965C348.762 136.411 347.592 135.893 346.413 135.429C346.354 135.411 346.3 135.381 346.253 135.341C346.206 135.301 346.168 135.252 346.141 135.197C346.115 135.142 346.099 135.081 346.097 135.02C346.094 134.959 346.104 134.897 346.126 134.84C346.149 134.783 346.182 134.731 346.226 134.687C346.269 134.643 346.321 134.609 346.378 134.586C346.435 134.564 346.496 134.553 346.557 134.555C346.619 134.557 346.679 134.572 346.735 134.598C347.941 135.062 349.138 135.598 350.308 136.17C351.004 136.518 351.755 136.894 352.514 137.304C352.617 137.363 352.693 137.459 352.726 137.572C352.76 137.685 352.748 137.807 352.693 137.912C352.653 137.98 352.595 138.035 352.526 138.073C352.457 138.111 352.378 138.129 352.3 138.126L352.291 138.144ZM251.352 134.973C251.273 134.975 251.195 134.953 251.129 134.911C249.262 133.83 247.448 132.704 245.769 131.552C245.682 131.482 245.625 131.382 245.608 131.272C245.591 131.162 245.615 131.05 245.677 130.957C245.738 130.865 245.832 130.798 245.94 130.771C246.048 130.744 246.162 130.758 246.26 130.81C247.958 131.945 249.753 133.07 251.62 134.142C251.704 134.192 251.769 134.268 251.806 134.358C251.843 134.448 251.849 134.548 251.823 134.642C251.798 134.737 251.743 134.82 251.666 134.88C251.589 134.939 251.494 134.972 251.397 134.973H251.352ZM340.544 133.571H340.437C338.406 133.089 336.343 132.749 334.265 132.552C334.148 132.541 334.04 132.484 333.965 132.394C333.889 132.303 333.853 132.187 333.863 132.07C333.876 131.952 333.935 131.844 334.027 131.769C334.119 131.694 334.236 131.658 334.354 131.668C336.46 131.868 338.549 132.214 340.607 132.704C340.725 132.717 340.834 132.777 340.908 132.87C340.983 132.963 341.017 133.081 341.004 133.2C340.991 133.318 340.932 133.427 340.839 133.501C340.746 133.576 340.627 133.61 340.509 133.597L340.544 133.571ZM321.741 133.285C321.64 133.284 321.542 133.249 321.463 133.186C321.383 133.123 321.327 133.035 321.303 132.936C321.277 132.822 321.296 132.701 321.358 132.6C321.42 132.5 321.519 132.428 321.634 132.4C323.203 132.03 324.797 131.776 326.404 131.641C326.922 131.641 327.449 131.561 327.967 131.534C328.026 131.528 328.086 131.534 328.143 131.552C328.2 131.57 328.252 131.6 328.296 131.64C328.341 131.679 328.377 131.727 328.402 131.782C328.426 131.836 328.44 131.894 328.441 131.954C328.446 132.071 328.404 132.185 328.326 132.272C328.247 132.359 328.138 132.411 328.021 132.418C327.503 132.418 326.994 132.49 326.484 132.534C324.923 132.664 323.374 132.909 321.848 133.267L321.741 133.285ZM240.874 127.925C240.774 127.927 240.677 127.896 240.597 127.836C238.9 126.505 237.274 125.111 235.765 123.709C235.723 123.668 235.689 123.618 235.667 123.564C235.644 123.509 235.632 123.451 235.632 123.392C235.632 123.333 235.644 123.275 235.667 123.22C235.689 123.166 235.723 123.116 235.765 123.075C235.85 122.992 235.963 122.946 236.082 122.946C236.2 122.946 236.314 122.992 236.399 123.075C237.891 124.468 239.498 125.844 241.178 127.157C241.27 127.231 241.329 127.338 241.342 127.455C241.356 127.572 241.322 127.69 241.249 127.782C241.201 127.829 241.143 127.864 241.08 127.884C241.016 127.904 240.949 127.909 240.883 127.898L240.874 127.925ZM231.656 119.305C231.592 119.305 231.528 119.291 231.47 119.265C231.412 119.239 231.359 119.201 231.316 119.153C229.913 117.558 228.603 115.881 227.395 114.133C227.328 114.036 227.302 113.916 227.322 113.799C227.342 113.682 227.406 113.578 227.502 113.508C227.601 113.444 227.721 113.421 227.837 113.442C227.954 113.464 228.057 113.529 228.127 113.624C229.333 115.338 230.639 116.978 232.04 118.537C232.121 118.621 232.167 118.733 232.167 118.85C232.167 118.967 232.121 119.079 232.04 119.162C231.99 119.209 231.931 119.244 231.865 119.264C231.8 119.284 231.732 119.289 231.664 119.278L231.656 119.305ZM224.509 108.917C224.427 108.916 224.346 108.892 224.277 108.848C224.207 108.804 224.152 108.741 224.116 108.666C223.137 106.778 222.292 104.823 221.588 102.816C221.551 102.703 221.559 102.58 221.611 102.474C221.663 102.367 221.754 102.284 221.865 102.244C221.977 102.207 222.098 102.215 222.204 102.267C222.309 102.319 222.39 102.41 222.428 102.521C223.119 104.492 223.949 106.411 224.911 108.264C224.964 108.37 224.973 108.492 224.937 108.604C224.9 108.716 224.82 108.809 224.715 108.863C224.65 108.889 224.579 108.899 224.509 108.89V108.917ZM220.427 96.9826C220.321 96.9837 220.218 96.9462 220.138 96.8772C220.057 96.8082 220.005 96.7123 219.99 96.6074C219.9 96.134 219.829 95.6605 219.757 95.1782C219.539 93.6035 219.429 92.0158 219.427 90.426V90.2384C219.427 90.12 219.474 90.0064 219.558 89.9226C219.641 89.8389 219.755 89.7918 219.873 89.7918C219.992 89.7918 220.105 89.8389 220.189 89.9226C220.273 90.0064 220.32 90.12 220.32 90.2384V90.4171C220.319 91.9651 220.426 93.5113 220.642 95.0442C220.713 95.5176 220.785 95.9821 220.865 96.4466C220.886 96.5627 220.86 96.6822 220.793 96.7793C220.726 96.8764 220.623 96.943 220.508 96.9647L220.427 96.9826ZM220.472 84.4054H220.391C220.276 84.3837 220.173 84.3171 220.106 84.22C220.039 84.123 220.013 84.0034 220.034 83.8873C220.423 81.789 220.987 79.7272 221.722 77.7238C221.766 77.6133 221.851 77.5239 221.959 77.474C222.067 77.4241 222.19 77.4176 222.303 77.4558C222.413 77.4979 222.501 77.5815 222.55 77.6885C222.598 77.7955 222.603 77.9173 222.562 78.0275C221.84 79.9834 221.287 81.9977 220.91 84.0481C220.89 84.1579 220.829 84.2561 220.739 84.3225C220.65 84.3889 220.538 84.4186 220.427 84.4054H220.472ZM224.831 72.6054C224.753 72.6014 224.677 72.58 224.608 72.5429C224.506 72.4815 224.432 72.3827 224.402 72.2675C224.372 72.1523 224.388 72.0299 224.447 71.9265C225.521 70.0811 226.762 68.3379 228.154 66.7188C228.235 66.6458 228.34 66.6049 228.449 66.6038C228.558 66.6028 228.663 66.6416 228.746 66.7129C228.828 66.7843 228.881 66.8833 228.896 66.9914C228.91 67.0994 228.885 67.209 228.824 67.2994C227.485 68.8851 226.29 70.5859 225.251 72.3821C225.207 72.4596 225.141 72.5222 225.062 72.562C224.982 72.6018 224.892 72.6169 224.804 72.6054H224.831ZM233.058 63.0922C232.966 63.0916 232.876 63.0625 232.801 63.0089C232.726 62.9552 232.669 62.8796 232.639 62.7924C232.608 62.7053 232.606 62.6109 232.631 62.5222C232.657 62.4335 232.709 62.3549 232.781 62.2971C234.469 60.9867 236.279 59.841 238.185 58.876C238.292 58.8227 238.415 58.8139 238.528 58.8516C238.641 58.8893 238.735 58.9703 238.788 59.0769C238.842 59.1835 238.85 59.307 238.813 59.42C238.775 59.5331 238.694 59.6266 238.587 59.6799C236.733 60.6196 234.971 61.7322 233.326 63.0028C233.242 63.0673 233.137 63.0991 233.031 63.0922H233.058ZM287.922 57.5271C285.795 57.4804 283.673 57.2924 281.571 56.9644C281.453 56.9478 281.346 56.8848 281.274 56.7893C281.202 56.6939 281.17 56.5737 281.187 56.4552C281.204 56.3368 281.267 56.2297 281.362 56.1577C281.458 56.0857 281.578 56.0545 281.696 56.0711C283.766 56.3965 285.855 56.5815 287.949 56.6249C288.067 56.6249 288.181 56.672 288.265 56.7557C288.349 56.8395 288.396 56.9531 288.396 57.0716C288.396 57.19 288.349 57.3036 288.265 57.3874C288.181 57.4711 288.067 57.5182 287.949 57.5182L287.922 57.5271ZM244.206 57.2949C244.147 57.3043 244.087 57.302 244.03 57.2882C243.972 57.2744 243.917 57.2494 243.869 57.2146C243.821 57.1798 243.78 57.1358 243.749 57.0852C243.718 57.0346 243.697 56.9784 243.688 56.9197C243.678 56.8611 243.681 56.8011 243.694 56.7433C243.708 56.6856 243.733 56.6311 243.768 56.583C243.803 56.5349 243.847 56.4941 243.897 56.463C243.948 56.4318 244.004 56.411 244.063 56.4016C246.084 55.7455 248.142 55.2086 250.226 54.7937C250.285 54.7821 250.344 54.7821 250.403 54.7939C250.461 54.8056 250.516 54.8287 250.565 54.862C250.614 54.8952 250.656 54.9379 250.688 54.9876C250.721 55.0372 250.743 55.0928 250.754 55.151C250.766 55.2081 250.768 55.2671 250.757 55.3246C250.746 55.3821 250.724 55.4368 250.691 55.4853C250.659 55.5339 250.616 55.5752 250.567 55.6068C250.518 55.6384 250.463 55.6596 250.405 55.6691C248.355 56.0793 246.33 56.6072 244.34 57.2502L244.206 57.2949ZM275.399 55.8925H275.318C273.398 55.5351 271.227 55.1332 269.065 54.8295C268.95 54.8118 268.846 54.7495 268.776 54.656C268.706 54.5624 268.675 54.4451 268.69 54.3292C268.697 54.2707 268.715 54.2141 268.744 54.1628C268.773 54.1116 268.812 54.0666 268.859 54.0308C268.905 53.9949 268.959 53.9689 269.016 53.9541C269.073 53.9394 269.132 53.9364 269.19 53.9451C271.334 54.2488 273.514 54.6598 275.443 55.0171C275.559 55.0388 275.662 55.1054 275.729 55.2025C275.796 55.2995 275.821 55.4191 275.801 55.5351C275.785 55.6346 275.738 55.7261 275.665 55.7956C275.592 55.8651 275.499 55.9086 275.399 55.9192V55.8925ZM256.569 54.7401C256.45 54.7472 256.334 54.707 256.245 54.6283C256.156 54.5495 256.102 54.4388 256.095 54.3203C256.088 54.2019 256.128 54.0854 256.207 53.9966C256.286 53.9079 256.397 53.854 256.515 53.8469C257.649 53.7218 258.864 53.6057 260.088 53.5074C260.874 53.4449 261.705 53.4092 262.554 53.4092H262.848C262.907 53.4103 262.965 53.423 263.019 53.4466C263.072 53.4701 263.121 53.504 263.162 53.5463C263.202 53.5886 263.234 53.6385 263.255 53.6931C263.277 53.7478 263.287 53.8061 263.286 53.8647C263.279 53.9802 263.23 54.0891 263.147 54.17C263.065 54.251 262.955 54.2982 262.839 54.3024H262.554C261.732 54.3024 260.928 54.3024 260.151 54.3918C258.918 54.49 257.721 54.6062 256.578 54.7401H256.569Z" fill="white" style="fill:white;fill-opacity:1;"/>
<path d="M254.211 211.258C253.148 211.213 252.094 211.133 251.075 211.034C251.017 211.03 250.96 211.014 250.908 210.987C250.856 210.96 250.81 210.923 250.772 210.878C250.735 210.833 250.707 210.781 250.69 210.725C250.673 210.669 250.667 210.61 250.673 210.552C250.677 210.493 250.692 210.436 250.718 210.383C250.745 210.33 250.782 210.284 250.827 210.246C250.872 210.208 250.925 210.18 250.981 210.164C251.038 210.147 251.097 210.143 251.156 210.15C252.165 210.248 253.201 210.32 254.255 210.365C254.374 210.365 254.487 210.412 254.571 210.495C254.655 210.579 254.702 210.693 254.702 210.811C254.702 210.93 254.655 211.043 254.571 211.127C254.487 211.211 254.374 211.258 254.255 211.258H254.211Z" fill="white" style="fill:white;fill-opacity:1;"/>
</g>
<path d="M337.305 23.7894L305.764 22.495C304.176 22.4298 302.837 23.6637 302.772 25.2509L302.186 39.5311C302.121 41.1183 303.354 42.4578 304.942 42.5229L336.483 43.8173C338.07 43.8825 339.41 42.6486 339.475 41.0614L340.061 26.7812C340.126 25.194 338.892 23.8545 337.305 23.7894Z" fill="#0F172A" style="fill:#0F172A;fill:color(display-p3 0.0588 0.0902 0.1647);fill-opacity:1;"/>
<path opacity="0.8" d="M337.305 23.7894L305.764 22.495C304.176 22.4298 302.837 23.6637 302.772 25.2509L302.186 39.5311C302.121 41.1183 303.354 42.4578 304.942 42.5229L336.483 43.8173C338.07 43.8825 339.41 42.6486 339.475 41.0614L340.061 26.7812C340.126 25.194 338.892 23.8545 337.305 23.7894Z" fill="white" style="fill:white;fill-opacity:1;"/>
<path opacity="0.4" d="M320.983 36.982C320.891 36.9816 320.801 36.9536 320.724 36.9016L304.396 25.6644C304.347 25.6312 304.305 25.5886 304.272 25.5391C304.24 25.4896 304.218 25.4342 304.207 25.376C304.196 25.3178 304.197 25.2581 304.209 25.2003C304.222 25.1424 304.246 25.0876 304.279 25.0391C304.348 24.9445 304.45 24.8797 304.564 24.8581C304.679 24.8365 304.798 24.8597 304.896 24.923L320.975 36.0173L337.947 26.2807C338.05 26.2229 338.171 26.2082 338.285 26.24C338.399 26.2719 338.496 26.3475 338.554 26.4504C338.613 26.5525 338.629 26.6735 338.598 26.7872C338.568 26.9009 338.495 26.9982 338.393 27.0579L321.225 36.8838C321.157 36.9412 321.072 36.9757 320.983 36.982Z" fill="#0F172A" style="fill:#0F172A;fill:color(display-p3 0.0588 0.0902 0.1647);fill-opacity:1;"/>
<path opacity="0.4" d="M337.561 41.3501C337.472 41.3507 337.384 41.3226 337.311 41.2697L327.968 34.7757C327.919 34.7425 327.877 34.6999 327.844 34.6504C327.812 34.6009 327.79 34.5455 327.779 34.4873C327.768 34.4291 327.769 34.3694 327.782 34.3115C327.794 34.2537 327.818 34.1989 327.852 34.1504C327.922 34.0547 328.026 33.9901 328.143 33.9701C328.259 33.95 328.379 33.9763 328.477 34.0432L337.821 40.5551C337.869 40.5881 337.909 40.6304 337.941 40.6794C337.972 40.7285 337.994 40.7833 338.004 40.8407C338.014 40.8981 338.012 40.9569 337.999 41.0137C337.986 41.0705 337.962 41.1241 337.928 41.1714C337.885 41.2281 337.83 41.2739 337.766 41.305C337.702 41.336 337.632 41.3515 337.561 41.3501Z" fill="#0F172A" style="fill:#0F172A;fill:color(display-p3 0.0588 0.0902 0.1647);fill-opacity:1;"/>
<path opacity="0.4" d="M304.1 39.9745C303.999 39.9792 303.899 39.9495 303.817 39.89C303.735 39.8306 303.676 39.745 303.649 39.6474C303.622 39.5498 303.629 39.4458 303.669 39.3527C303.709 39.2596 303.779 39.1827 303.868 39.1348L313.694 33.4358C313.795 33.3902 313.909 33.3837 314.014 33.4174C314.12 33.4511 314.209 33.5227 314.264 33.6183C314.32 33.7139 314.338 33.8267 314.315 33.9349C314.292 34.0431 314.23 34.139 314.141 34.204L304.315 39.9119C304.25 39.9518 304.176 39.9734 304.1 39.9745Z" fill="#0F172A" style="fill:#0F172A;fill:color(display-p3 0.0588 0.0902 0.1647);fill-opacity:1;"/>
<path d="M368.905 31.4438L306.047 45.7807L297.989 50.7562L368.905 31.4438Z" fill="#0F172A" style="fill:#0F172A;fill:color(display-p3 0.0588 0.0902 0.1647);fill-opacity:1;"/>
<path opacity="0.2" d="M306.047 45.7807L297.989 50.7562L368.905 31.4438" fill="black" style="fill:black;fill-opacity:1;"/>
<path d="M368.905 31.4438L306.046 45.7807L311.959 50.1309L368.905 31.4438Z" fill="#0F172A" style="fill:#0F172A;fill:color(display-p3 0.0588 0.0902 0.1647);fill-opacity:1;"/>
<path d="M368.906 31.4438L315.015 42.4667L311.96 50.1309L368.906 31.4438Z" fill="#0F172A" style="fill:#0F172A;fill:color(display-p3 0.0588 0.0902 0.1647);fill-opacity:1;"/>
<path opacity="0.2" d="M368.906 31.4438L315.015 42.4667L311.96 50.1309L368.906 31.4438Z" fill="black" style="fill:black;fill-opacity:1;"/>
<path d="M368.905 31.4438L315.015 42.4667L331.987 48.6213L368.905 31.4438Z" fill="#0F172A" style="fill:#0F172A;fill:color(display-p3 0.0588 0.0902 0.1647);fill-opacity:1;"/>
</svg>
